<svg width="256" height="256" viewBox="0 0 256 256" fill="none" xmlns="http://www.w3.org/2000/svg">
<path d="M127.999 188C126.423 188.002 124.862 187.692 123.406 187.089C121.95 186.486 120.627 185.601 119.514 184.485L39.5143 104.485C37.2941 102.228 36.0556 99.1859 36.0685 96.0202C36.0813 92.8546 37.3446 89.8223 39.5831 87.5838C41.8215 85.3453 44.8539 84.0821 48.0195 84.0692C51.1851 84.0563 54.2276 85.2948 56.4843 87.515L127.999 159.029L199.514 87.515C201.771 85.2948 204.813 84.0563 207.979 84.0692C211.145 84.0821 214.177 85.3453 216.415 87.5838C218.654 89.8223 219.917 92.8546 219.93 96.0202C219.943 99.1859 218.704 102.228 216.484 104.485L136.484 184.485C135.371 185.601 134.049 186.486 132.593 187.089C131.136 187.692 129.575 188.002 127.999 188V188Z" fill="black"/>
</svg>
