<svg width="34" height="47" viewBox="0 0 34 47" fill="none" xmlns="http://www.w3.org/2000/svg">
<path d="M23.3851 23.7905C22.6512 23.89 21.8924 23.8651 21.1585 23.7159C20.3376 23.5418 19.5415 23.2184 18.7081 23.3055C17.9368 23.3801 17.2154 23.7905 16.4317 23.8278C15.6232 23.8527 14.8768 23.4671 14.0932 23.2433C13.9066 23.1935 13.72 23.1438 13.521 23.1065C13.8444 22.5219 14.031 21.8503 14.031 21.1414V19.5122C14.7027 19.537 15.3868 19.4749 16.0586 19.3505C17.0288 19.1764 17.9493 18.853 18.8076 18.4053C20.1883 19.1266 21.7556 19.4251 23.2981 19.2759C23.2981 19.45 23.2981 19.6241 23.3105 19.7982C23.3105 19.8728 23.3105 19.9475 23.3105 20.0221C23.3105 20.0843 23.3105 20.134 23.3105 20.1962C23.3105 20.2584 23.3105 20.333 23.3105 20.4076C23.3105 20.6315 23.3229 20.8554 23.3229 21.0792C23.3229 21.1912 23.3229 21.3031 23.3229 21.4275C23.3229 21.7135 23.3354 22.012 23.3354 22.2981C23.3354 22.4349 23.3354 22.5717 23.3354 22.7085C23.3354 22.9324 23.3478 23.1562 23.3478 23.3801C23.3478 23.4796 23.3478 23.5791 23.3478 23.691C23.3851 23.7034 23.3851 23.7408 23.3851 23.7905Z" fill="#FCE8C3"/>
<path d="M6.30607 22.7331V44.5353C5.4851 44.3487 5.09949 44.1373 4.93778 43.9507C4.88803 43.8885 4.88803 43.8637 4.90047 43.8388C4.90047 43.8015 4.91291 43.7517 4.91291 43.702C5.12437 41.8489 5.32339 31.0411 5.44778 22.5342C5.709 22.5093 5.95778 22.5093 6.219 22.5093C6.24388 22.5963 6.28119 22.671 6.30607 22.7331Z" fill="#FCE8C3"/>
<path d="M23.8827 43.951C23.4971 44.4112 21.8427 44.9584 16.2079 45.0206H15.6357C15.2252 45.0206 14.8147 45.0206 14.4166 45.0206C14.0186 45.0206 13.6081 45.0206 13.1976 45.0206H12.6254C9.36641 44.9833 7.43836 44.7843 6.31885 44.5355V43.1426C9.25445 43.1675 12.1652 43.6898 15.0262 44.1749C15.4366 44.2495 15.8596 44.3117 16.2825 44.3241C17.0413 44.349 17.7752 44.1997 18.5091 44.0754C20.2754 43.7769 22.0791 43.6525 23.8952 43.5654C23.8952 43.6152 23.9076 43.6649 23.9076 43.7147C23.92 43.7644 23.92 43.8142 23.92 43.8515C23.9325 43.8764 23.9325 43.9012 23.8827 43.951Z" fill="#FCE8C3"/>
<path d="M10.8344 38.6028C11.2449 40.2569 11.9166 41.9857 11.7549 43.6398C9.95127 43.3662 8.13517 43.1548 6.30664 43.1423V22.7456C6.92859 24.1634 8.35908 25.1584 10.0135 25.1584C10.7349 25.1584 11.4066 24.9718 11.9913 24.636C11.9415 25.8673 11.8047 27.0986 11.5559 28.305C11.2698 29.6482 10.8469 30.9665 10.6105 32.3097C10.2498 34.3991 10.3369 36.5507 10.8344 38.6028Z" fill="#E5A038"/>
<path d="M23.8945 43.5529C22.0784 43.64 20.2748 43.7643 18.5084 44.0628C17.7745 44.1872 17.0406 44.3364 16.2819 44.3116C15.8589 44.2991 15.436 44.2369 15.0255 44.1623C13.9433 43.9758 12.8611 43.7892 11.7665 43.6275C11.9282 41.9858 11.2565 40.2571 10.846 38.5905C10.336 36.5384 10.2614 34.3868 10.6221 32.3098C10.8585 30.9542 11.2814 29.6483 11.5675 28.3051C11.8163 27.0863 11.9531 25.8674 12.0028 24.6362C12.6497 24.2755 13.1846 23.7407 13.5453 23.0815C13.7319 23.1189 13.9309 23.1686 14.1175 23.2183C14.8887 23.4422 15.6475 23.8402 16.456 23.8029C17.2397 23.778 17.9487 23.3552 18.7323 23.2805C19.5658 23.2059 20.3619 23.5293 21.1828 23.691C21.9167 23.8402 22.6755 23.8651 23.4094 23.7656C23.4094 23.8651 23.4094 23.9521 23.4094 24.0516C23.4094 24.1138 23.4094 24.1636 23.4094 24.2257C23.4094 24.375 23.4094 24.5242 23.4219 24.6735C23.4219 24.8227 23.4219 24.9844 23.4343 25.1337C23.4343 25.4695 23.4467 25.7928 23.4467 26.1286C23.4467 26.1784 23.4467 26.2405 23.4467 26.2903C23.5089 30.009 23.5836 33.852 23.6582 36.9986C23.6706 37.3095 23.6706 37.5956 23.6831 37.894C23.6831 38.0682 23.6955 38.2298 23.6955 38.3915C23.7204 39.0258 23.7328 39.6352 23.7453 40.1825C23.7577 40.4934 23.7701 40.7794 23.7701 41.0655C23.7701 41.2396 23.7826 41.4013 23.7826 41.5505C23.8075 42.0978 23.8323 42.5704 23.8448 42.9435C23.8572 43.2047 23.8697 43.4037 23.8945 43.5529Z" fill="#EEB448"/>
<path d="M6.21898 22.522C5.95776 22.522 5.70897 22.522 5.44775 22.5469C5.47263 21.129 5.48507 19.761 5.50995 18.5297C5.50995 18.3556 5.50995 18.1939 5.52239 18.0322C5.67166 18.0571 5.82093 18.082 5.9702 18.0944V21.129C5.9702 21.6141 6.05727 22.0867 6.21898 22.522Z" fill="#FCE8C3"/>
<path d="M18.2724 21.4645C17.2026 21.6387 16.4812 22.6585 16.6553 23.7281C16.8295 24.7977 17.8495 25.519 18.9192 25.3449C19.989 25.1708 20.7104 24.1509 20.5363 23.0814C20.3621 22.0118 19.3421 21.278 18.2724 21.4645Z" fill="#FCE8C3"/>
<path d="M24.8535 23.181C24.8286 23.181 24.8037 23.181 24.7664 23.181C24.7664 23.4546 24.7789 23.7158 24.7789 23.9894C24.7789 24.0143 24.7789 24.0392 24.7789 24.0516C24.8037 24.0516 24.8286 24.0516 24.8411 24.0516C26.8313 24.0516 28.5852 25.1088 28.5852 26.3276V34.8718C28.5852 36.0409 26.9433 37.0856 25.0276 37.1478C25.0401 37.4463 25.0401 37.7324 25.0525 38.0184C27.4906 37.9438 29.4559 36.5633 29.4559 34.8718V26.3276C29.4684 24.5989 27.3911 23.181 24.8535 23.181ZM30.7993 21.9995C29.1947 20.7558 27.0925 20.0718 24.8535 20.0718C24.8162 20.0718 24.7664 20.0718 24.7291 20.0718C24.2564 20.0718 23.7962 20.1091 23.3359 20.1837C23.3359 20.2459 23.3359 20.3205 23.3359 20.3951C23.3359 20.619 23.3484 20.8429 23.3484 21.0667C23.7962 20.9921 24.2689 20.9548 24.7415 20.9548C24.7789 20.9548 24.8162 20.9548 24.8535 20.9548C29.0703 20.9548 32.5035 23.6288 32.5035 26.9246V34.3246C32.5035 37.5458 29.2196 40.17 25.1147 40.282C25.0276 40.282 24.9406 40.282 24.8411 40.282C24.4554 40.282 24.0823 40.2571 23.7215 40.2198C23.734 40.5307 23.7464 40.8167 23.7464 41.1028C24.1072 41.1401 24.4679 41.1525 24.8411 41.1525C24.9406 41.1525 25.0401 41.1525 25.1396 41.1525C27.2667 41.0904 29.2569 40.4188 30.7869 39.2248C32.4537 37.9314 33.3618 36.1902 33.3618 34.3246V26.9246C33.3742 25.0466 32.4662 23.3054 30.7993 21.9995ZM25.0401 37.1478C25.0525 37.4463 25.0525 37.7324 25.065 38.0184C27.503 37.9438 29.4684 36.5633 29.4684 34.8718V26.3276C29.4684 24.5989 27.3911 23.181 24.8535 23.181C24.8286 23.181 24.8037 23.181 24.7664 23.181C24.7664 23.4546 24.7789 23.7158 24.7789 23.9894C24.7789 24.0143 24.7789 24.0392 24.7789 24.0516C24.8037 24.0516 24.8286 24.0516 24.8411 24.0516C26.8313 24.0516 28.5852 25.1088 28.5852 26.3276V34.8718C28.5976 36.0534 26.9557 37.0856 25.0401 37.1478ZM23.3981 24.2506C23.3981 24.3999 23.3981 24.5491 23.3981 24.6984C23.3981 24.8476 23.3981 25.0093 23.4106 25.1585C23.4106 25.4943 23.423 25.8177 23.423 26.1535C23.423 26.2032 23.423 26.2654 23.423 26.3152C23.4852 30.0338 23.5598 33.8769 23.6345 37.0235L23.3981 24.2506ZM23.3981 24.2506C23.3981 24.3999 23.3981 24.5491 23.3981 24.6984C23.3981 24.8476 23.3981 25.0093 23.4106 25.1585C23.4106 25.4943 23.423 25.8177 23.423 26.1535C23.423 26.2032 23.423 26.2654 23.423 26.3152C23.4852 30.0338 23.5598 33.8769 23.6345 37.0235L23.3981 24.2506ZM23.3981 24.2506C23.3981 24.3999 23.3981 24.5491 23.3981 24.6984C23.3981 24.8476 23.3981 25.0093 23.4106 25.1585C23.4106 25.4943 23.423 25.8177 23.423 26.1535C23.423 26.2032 23.423 26.2654 23.423 26.3152C23.4852 30.0338 23.5598 33.8769 23.6345 37.0235L23.3981 24.2506ZM24.8535 23.181C24.8286 23.181 24.8037 23.181 24.7664 23.181C24.2813 23.181 23.8211 23.2432 23.3733 23.3427L23.3857 24.2382C23.8211 24.1262 24.2813 24.0516 24.7664 24.0516C24.7913 24.0516 24.8162 24.0516 24.8286 24.0516C26.8189 24.0516 28.5728 25.1088 28.5728 26.3276V34.8718C28.5728 36.0409 26.9308 37.0856 25.0152 37.1478C24.953 37.1478 24.8908 37.1478 24.8286 37.1478C24.4057 37.1478 24.0076 37.0981 23.622 37.011L23.6345 37.9065C24.0201 37.9811 24.4057 38.0184 24.8286 38.0184C24.9033 38.0184 24.9654 38.0184 25.0401 38.0184C27.4781 37.9438 29.4435 36.5633 29.4435 34.8718V26.3276C29.4684 24.5989 27.3911 23.181 24.8535 23.181ZM24.8535 23.181C24.8286 23.181 24.8037 23.181 24.7664 23.181C24.2813 23.181 23.8211 23.2432 23.3733 23.3427L23.3857 24.2382C23.8211 24.1262 24.2813 24.0516 24.7664 24.0516C24.7913 24.0516 24.8162 24.0516 24.8286 24.0516C26.8189 24.0516 28.5728 25.1088 28.5728 26.3276V34.8718C28.5728 36.0409 26.9308 37.0856 25.0152 37.1478C24.953 37.1478 24.8908 37.1478 24.8286 37.1478C24.4057 37.1478 24.0076 37.0981 23.622 37.011L23.6345 37.9065C24.0201 37.9811 24.4057 38.0184 24.8286 38.0184C24.9033 38.0184 24.9654 38.0184 25.0401 38.0184C27.4781 37.9438 29.4435 36.5633 29.4435 34.8718V26.3276C29.4684 24.5989 27.3911 23.181 24.8535 23.181ZM24.8535 23.181C24.8286 23.181 24.8037 23.181 24.7664 23.181C24.2813 23.181 23.8211 23.2432 23.3733 23.3427L23.3857 24.2382C23.8211 24.1262 24.2813 24.0516 24.7664 24.0516C24.7913 24.0516 24.8162 24.0516 24.8286 24.0516C26.8189 24.0516 28.5728 25.1088 28.5728 26.3276V34.8718C28.5728 36.0409 26.9308 37.0856 25.0152 37.1478C24.953 37.1478 24.8908 37.1478 24.8286 37.1478C24.4057 37.1478 24.0076 37.0981 23.622 37.011L23.6345 37.9065C24.0201 37.9811 24.4057 38.0184 24.8286 38.0184C24.9033 38.0184 24.9654 38.0184 25.0401 38.0184C27.4781 37.9438 29.4435 36.5633 29.4435 34.8718V26.3276C29.4684 24.5989 27.3911 23.181 24.8535 23.181Z" fill="#292D3C"/>
<path d="M26.4072 44.9332C26.4072 46.0401 21.0336 46.9355 14.416 46.9355C7.78602 46.9355 2.4248 46.0401 2.4248 44.9332C2.4248 44.6347 2.82285 44.3486 3.51944 44.0999C3.89261 43.9631 4.36529 43.8387 4.91261 43.7144C4.91261 43.7641 4.90017 43.8139 4.90017 43.8512C4.90017 43.8885 4.88773 43.9009 4.93748 43.9631C5.32309 44.4233 6.97748 44.9705 12.6123 45.0327H13.1845C13.595 45.0327 14.0055 45.0327 14.4036 45.0327C14.8016 45.0327 15.2121 45.0327 15.6226 45.0327H16.1948C21.8421 44.9705 23.484 44.4233 23.8696 43.9631C23.9194 43.9009 23.9194 43.876 23.907 43.8512C23.8945 43.8139 23.8945 43.7641 23.8945 43.7144C24.4418 43.8263 24.9145 43.9631 25.2877 44.0999C26.0092 44.3486 26.4072 44.6347 26.4072 44.9332Z" fill="#292D3C"/>
<path d="M10.0125 32.1353C8.25861 32.1353 6.82812 30.7051 6.82812 28.9515C6.82812 27.1978 8.25861 25.7676 10.0125 25.7676C11.7664 25.7676 13.1969 27.1978 13.1969 28.9515C13.1969 30.7051 11.7664 32.1353 10.0125 32.1353ZM10.0125 26.9988C8.94276 26.9988 8.07203 27.8694 8.07203 28.939C8.07203 30.0086 8.94276 30.8792 10.0125 30.8792C11.0823 30.8792 11.953 30.0086 11.953 28.939C11.953 27.8694 11.0823 26.9988 10.0125 26.9988Z" fill="#292D3C"/>
<path d="M18.6335 32.3224C18.3225 32.3721 18.0986 32.6706 18.1608 32.994C18.2106 33.3049 18.5091 33.5288 18.8325 33.4666C19.1435 33.4168 19.3674 33.1183 19.3052 32.795C19.243 32.4716 18.9445 32.2602 18.6335 32.3224Z" fill="#FCE8C3"/>
<path d="M15.4482 30.0585C15.4979 30.3694 15.7965 30.5933 16.1199 30.5311C16.4309 30.4813 16.6548 30.1828 16.5926 29.8595C16.5428 29.5486 16.2443 29.3247 15.9209 29.3869C15.6099 29.4491 15.3984 29.7475 15.4482 30.0585Z" fill="#FCE8C3"/>
<path d="M14.3667 33.4542C14.4662 34.0263 15.0011 34.4119 15.5857 34.3248C16.1579 34.2253 16.5435 33.6905 16.4565 33.106C16.3569 32.5339 15.8221 32.1483 15.2374 32.2354C14.6528 32.3349 14.2672 32.8821 14.3667 33.4542Z" fill="#FCE8C3"/>
<path d="M16.9667 36.8744C17.0165 37.1853 17.315 37.4092 17.6384 37.347C17.9494 37.2972 18.1733 36.9988 18.1111 36.6754C18.0614 36.3645 17.7628 36.1406 17.4394 36.2028C17.1284 36.2525 16.917 36.551 16.9667 36.8744Z" fill="#FCE8C3"/>
<path d="M20.6851 29.1883C20.2249 29.2629 19.9139 29.6982 20.001 30.1584C20.0756 30.6186 20.511 30.9295 20.9712 30.8424C21.4314 30.7678 21.7424 30.3325 21.6554 29.8724C21.5683 29.4246 21.1329 29.1137 20.6851 29.1883Z" fill="#FCE8C3"/>
<path d="M3.85547 41.4253C4.58937 41.6118 5.32327 41.8108 6.04473 41.985C6.23131 42.0223 6.40546 42.072 6.59205 42.1093L7.13936 42.2337L7.68668 42.3456L8.23399 42.4576L8.78131 42.5571L9.32863 42.6441L9.87594 42.7312C10.0625 42.7561 10.2491 42.7809 10.4233 42.8058C11.1572 42.9053 11.9035 42.9924 12.6374 43.0919C11.8911 43.1914 11.1447 43.2162 10.4108 43.1789C10.0376 43.1665 9.66448 43.1292 9.29131 43.0919L8.73155 43.0172L8.1718 42.9177L7.62448 42.7934L7.07717 42.6566L6.52985 42.4949C6.34327 42.4451 6.16912 42.3829 5.98253 42.3208C5.27351 42.1093 4.55205 41.7984 3.85547 41.4253Z" fill="#292D3C"/>
<path d="M3.89307 40.1567C4.57721 40.2935 5.24892 40.4055 5.93306 40.5299L7.97306 40.903L10.0131 41.2885C10.6972 41.4253 11.3689 41.5497 12.0531 41.7238C11.3689 41.7611 10.6723 41.7238 9.98818 41.6616C9.63989 41.6368 9.30403 41.587 8.95574 41.5497C8.61989 41.4999 8.2716 41.4378 7.93574 41.388C7.59989 41.3134 7.2516 41.2512 6.91574 41.1766C6.57989 41.0895 6.24404 41.0149 5.89575 40.9154C5.22404 40.704 4.55233 40.4801 3.89307 40.1567Z" fill="#292D3C"/>
<path d="M3.93066 39.0498C4.40335 39.1244 4.86359 39.2115 5.32383 39.2985L6.00798 39.4229C6.11993 39.4354 6.23188 39.4602 6.35627 39.4851L6.70457 39.5348C7.16481 39.6095 7.62505 39.6717 8.0853 39.7338C8.54554 39.796 9.00578 39.8458 9.47846 39.9204C9.01822 40.0448 8.54554 40.0945 8.07286 40.107C7.60017 40.1194 7.12749 40.0821 6.66725 40.0075C6.43091 39.9701 6.20701 39.9204 5.97066 39.8582C5.73432 39.796 5.51042 39.7338 5.27408 39.6468C4.81384 39.51 4.36603 39.311 3.93066 39.0498Z" fill="#292D3C"/>
<path d="M3.96729 37.6694C4.24094 37.6694 4.50216 37.7067 4.77582 37.7565C5.03704 37.8062 5.29826 37.856 5.55948 37.9182C5.8207 37.9804 6.08192 38.055 6.34314 38.142C6.60436 38.2291 6.86557 38.341 7.11436 38.4903C6.8407 38.54 6.57948 38.54 6.30582 38.5152C6.0446 38.4903 5.77094 38.453 5.50972 38.3908C5.2485 38.3286 4.98729 38.2415 4.72607 38.1296C4.45241 37.9928 4.20363 37.856 3.96729 37.6694Z" fill="#292D3C"/>
<path d="M24.7658 22.7085C24.4797 22.609 24.2061 22.5095 23.92 22.4225C23.7583 22.3727 23.5841 22.323 23.4224 22.2857L23.3602 22.2732L22.9248 22.1737L22.4273 22.0742L21.9297 21.9872L21.4322 21.925L20.9346 21.8877C20.5988 21.8752 20.2753 21.8628 19.9395 21.8628C19.2802 21.8752 18.6209 21.9374 17.9741 22.0742C18.6334 22.124 19.2927 22.1613 19.9519 22.211C20.1136 22.2235 20.2753 22.2483 20.4495 22.2608L20.947 22.3105L21.4446 22.3603L21.9422 22.4225L22.4397 22.4971L22.9373 22.5717L23.3975 22.6463L23.4348 22.6588C23.5966 22.6961 23.7583 22.7209 23.9324 22.7458C24.2185 22.7956 24.5046 22.8578 24.8031 22.9199L24.7658 22.7085Z" fill="#292D3C"/>
<path d="M24.7789 23.9896C24.555 23.9275 24.3186 23.8653 24.0947 23.8155C23.8584 23.7533 23.622 23.7036 23.3857 23.6663C23.3235 23.6539 23.2489 23.6414 23.1867 23.629C22.8757 23.5668 22.5772 23.5295 22.2662 23.4797C21.9552 23.4424 21.6567 23.4051 21.3457 23.3802C21.0347 23.3554 20.7362 23.3305 20.4252 23.3305C19.8157 23.3056 19.2062 23.3181 18.5967 23.3927C19.2062 23.517 19.8157 23.6041 20.4252 23.6787L22.2537 23.9275L23.3857 24.0767L24.0823 24.1638C24.3186 24.1886 24.5425 24.226 24.7789 24.2508V23.9896Z" fill="#292D3C"/>
<path d="M24.8027 25.3205C24.7778 25.3205 24.7405 25.308 24.7156 25.308L24.0936 25.2334C23.9941 25.221 23.8822 25.2085 23.7827 25.1961L23.4717 25.1588C23.4468 25.1588 23.4219 25.1588 23.3971 25.1464C23.0114 25.109 22.6258 25.0717 22.2278 25.0469C21.8173 25.022 21.4068 24.9971 20.9839 24.9474C21.3819 24.7981 21.7924 24.7235 22.2153 24.6862C22.601 24.6489 22.999 24.6489 23.3846 24.6862C23.4095 24.6862 23.4344 24.6862 23.4592 24.6986C23.6707 24.7235 23.8822 24.7608 24.0812 24.7981C24.2927 24.8479 24.5041 24.8852 24.7032 24.9598C24.728 24.9722 24.7529 24.9722 24.7653 24.9847C24.8027 25.0966 24.8027 25.2085 24.8027 25.3205Z" fill="#292D3C"/>
<path d="M25.3006 43.6273C25.2757 43.5029 25.2633 43.279 25.2384 42.9681C25.2135 42.6074 25.1887 42.1473 25.1762 41.5751C25.1638 41.4383 25.1638 41.2891 25.1638 41.1399C25.1514 40.8662 25.1389 40.5802 25.1389 40.2693C25.114 39.7096 25.1016 39.0877 25.0892 38.4161C25.0892 38.2918 25.0767 38.155 25.0767 38.0182C25.0643 37.7321 25.0643 37.4461 25.0518 37.1476C25.0518 37.1103 25.0518 37.0605 25.0518 37.0232C24.9772 34.1378 24.915 30.5559 24.8404 26.7005C24.8404 26.5512 24.8404 26.402 24.8279 26.2527C24.8279 25.9418 24.8155 25.6433 24.8155 25.3324C24.8155 25.2205 24.8155 25.1085 24.8155 24.9841C24.8155 24.7478 24.8031 24.4991 24.8031 24.2628C24.8031 24.2006 24.8031 24.126 24.8031 24.0638C24.8031 24.0389 24.8031 24.0141 24.8031 24.0016C24.8031 23.7404 24.7906 23.4668 24.7906 23.1932C24.7906 23.1186 24.7906 23.044 24.7906 22.9569C24.7906 22.8699 24.7906 22.7952 24.7906 22.7082C24.7906 22.2729 24.7782 21.8376 24.7782 21.4023C24.7782 21.253 24.7782 21.0914 24.7657 20.9421C24.7657 20.7556 24.7533 20.569 24.7533 20.3824C24.7533 20.283 24.7533 20.171 24.7533 20.0715C24.7533 20.0466 24.7533 20.0342 24.7533 20.0093C24.7533 19.8228 24.7533 19.6487 24.7409 19.4621C24.7409 19.3129 24.7409 19.1512 24.7284 19.0019C24.7284 18.7408 24.716 18.492 24.716 18.2308C24.3304 18.3925 23.9323 18.5169 23.5218 18.5915C23.4596 18.604 23.3974 18.6164 23.3353 18.6164C23.3353 18.7408 23.3353 18.8651 23.3477 18.9895C23.3477 19.0766 23.3477 19.1636 23.3477 19.2507C23.3477 19.4248 23.3477 19.5989 23.3601 19.773C23.3601 19.8477 23.3601 19.9223 23.3601 19.9969C23.3601 20.0591 23.3601 20.1088 23.3601 20.171C23.3601 20.2332 23.3601 20.3078 23.3601 20.3824C23.3601 20.6063 23.3726 20.8302 23.3726 21.054C23.3726 21.166 23.3726 21.2779 23.3726 21.4023C23.3726 21.6883 23.385 21.9868 23.385 22.2729C23.385 22.4097 23.385 22.5465 23.385 22.6833C23.385 22.9072 23.3974 23.131 23.3974 23.3549C23.3974 23.4544 23.3974 23.5539 23.3974 23.6658C23.3974 23.8026 23.3975 23.9394 23.4099 24.0887C23.4099 24.1509 23.4099 24.2006 23.4099 24.2628C23.4099 24.412 23.4099 24.5613 23.4223 24.7105C23.4223 24.8598 23.4223 25.0215 23.4348 25.1707C23.4348 25.5065 23.4472 25.8299 23.4472 26.1657C23.4472 26.2154 23.4472 26.2776 23.4472 26.3273C23.5094 30.046 23.584 33.8891 23.6587 37.0356C23.6711 37.3466 23.6711 37.6326 23.6835 37.9311C23.6835 38.1052 23.696 38.2669 23.696 38.4286C23.7209 39.0629 23.7333 39.6723 23.7457 40.2195C23.7582 40.5304 23.7706 40.8165 23.7706 41.1025C23.7706 41.2767 23.7831 41.4383 23.7831 41.5876C23.8079 42.1348 23.8328 42.6074 23.8453 42.9805C23.8577 43.3039 23.8826 43.5526 23.9074 43.7268C23.9199 43.7765 23.9199 43.8263 23.9199 43.8636C23.9199 43.8884 23.9323 43.9133 23.8826 43.9755C23.497 44.4357 21.8426 44.9829 16.2077 45.0451H15.6355C15.225 45.0451 14.8145 45.0451 14.4165 45.0451C14.0184 45.0451 13.608 45.0451 13.1975 45.0451H12.6253C6.97796 44.9829 5.33601 44.4357 4.9504 43.9755C4.90065 43.9133 4.90065 43.8884 4.91309 43.8636C4.91309 43.8263 4.92552 43.7765 4.92552 43.7268C5.16186 41.5627 5.39821 27.1979 5.5226 18.5418C5.5226 18.3677 5.5226 18.206 5.53504 18.0443C5.53504 17.808 5.54747 17.5717 5.54747 17.3478C5.03747 17.1986 4.57723 16.9498 4.16675 16.6265C4.16675 16.9623 4.15431 17.2856 4.15431 17.6214C4.15431 17.7458 4.15431 17.8702 4.15431 18.007C3.9926 29.9714 3.75626 42.3214 3.55723 43.6521C3.53235 43.8138 3.53235 43.9631 3.55723 44.1123C3.59455 44.3859 3.71894 44.6471 3.91797 44.871C4.81358 45.9281 7.33869 46.3758 12.6128 46.4256C12.6502 46.4256 12.675 46.4256 12.7123 46.4256H13.2099C13.5458 46.4256 13.8816 46.4256 14.205 46.4256H14.6528C14.9762 46.4256 15.3121 46.4256 15.648 46.4256H16.158C16.1953 46.4256 16.2201 46.4256 16.2575 46.4256C21.544 46.3758 24.0692 45.9157 24.9648 44.871C25.1638 44.6347 25.2757 44.3859 25.3255 44.0999C25.3255 43.9382 25.3255 43.7889 25.3006 43.6273Z" fill="#292D3C"/>
<path d="M32.5024 26.9119V34.3119C32.5024 37.5331 29.2185 40.1573 25.1136 40.2693C25.0888 39.7096 25.0763 39.0877 25.0639 38.4161C25.0639 38.2918 25.0514 38.155 25.0514 38.0182C27.4895 37.9435 29.4548 36.563 29.4548 34.8716V26.3274C29.4548 24.5986 27.3775 23.1808 24.84 23.1808C24.8151 23.1808 24.7902 23.1808 24.7529 23.1808C24.7529 23.1062 24.7529 23.0315 24.7529 22.9445C24.7529 22.8574 24.7529 22.7828 24.7529 22.6957C24.7529 22.2604 24.7405 21.8252 24.7405 21.3899C24.7405 21.2406 24.7405 21.0789 24.728 20.9297C24.7653 20.9297 24.8027 20.9297 24.84 20.9297C29.0692 20.9421 32.5024 23.6161 32.5024 26.9119Z" fill="#EEB448"/>
<path d="M30.3881 9.87317C30.0025 7.77132 28.8208 5.94307 27.0669 4.73668C25.4871 3.64222 23.5964 3.15718 21.7057 3.35617C19.4542 0.756832 15.9961 -0.461996 12.5879 0.159855C9.8264 0.657336 7.45055 2.31146 6.00763 4.69937C5.84592 4.71181 5.68422 4.73668 5.52251 4.77399C3.75617 5.09736 2.21373 6.09232 1.19374 7.57232C0.173738 9.05233 -0.211871 10.8433 0.111543 12.6093C0.472275 14.5868 1.6913 16.2907 3.45763 17.2732C3.68154 17.3976 3.90544 17.5095 4.14178 17.609C4.49007 17.7583 4.83836 17.8702 5.1991 17.9572C5.31105 17.9821 5.423 18.007 5.52251 18.0194C5.67178 18.0443 5.82105 18.0692 5.97031 18.0816V21.1162C5.97031 23.3425 7.78641 25.1583 10.013 25.1583C12.2396 25.1583 14.0557 23.3425 14.0557 21.1162V19.487C14.7274 19.5119 15.4115 19.4497 16.0832 19.3253C17.0535 19.1512 17.974 18.8278 18.8322 18.3801C20.213 19.1014 21.7803 19.3999 23.3227 19.2507C23.3849 19.2507 23.4347 19.2383 23.4969 19.2383C23.6586 19.2258 23.8203 19.2009 23.9696 19.1636C24.2183 19.1139 24.4671 19.0641 24.7159 18.9895C24.8776 18.9398 25.0269 18.89 25.1886 18.8403C26.9674 18.2184 28.4725 16.9747 29.4303 15.3455C30.3881 13.7038 30.7364 11.7512 30.3881 9.87317Z" fill="#292D3C"/>
<path d="M24.1065 17.7213C23.9821 17.7586 23.8453 17.7834 23.7085 17.8083C23.5841 17.8332 23.4597 17.8456 23.3229 17.8705C21.9048 18.0446 20.4495 17.7461 19.218 17.0372C18.9817 16.9004 18.6831 16.9004 18.4468 17.0372C17.6383 17.4974 16.7551 17.8083 15.8346 17.9824C15.0634 18.1192 14.2797 18.1565 13.5209 18.0819C13.297 18.0571 13.0856 18.1317 12.9239 18.2809C12.7622 18.4302 12.6751 18.6416 12.6751 18.853V21.129C12.6751 22.5966 11.481 23.7781 10.0256 23.7781C8.55779 23.7781 7.37608 22.5841 7.37608 21.129V17.5223C7.37608 17.0994 7.04023 16.7512 6.6173 16.7512C6.25657 16.7387 5.8834 16.689 5.52267 16.6144C5.03755 16.5024 4.57731 16.3159 4.14194 16.0796C2.73633 15.296 1.77853 13.9528 1.48 12.3733C1.21878 10.9679 1.52975 9.55013 2.33829 8.38105C3.14682 7.19953 4.36584 6.41599 5.77145 6.15482C5.98291 6.11751 6.19438 6.09263 6.41828 6.0802C6.54267 6.06776 6.66706 6.03045 6.77901 5.96826C7.07755 6.37868 7.3512 6.80154 7.62486 7.23684C8.85632 9.18945 10.1873 11.453 12.4388 11.9256C14.9266 12.448 17.6258 10.5451 19.927 11.6147C22.1909 12.6469 22.5517 15.893 24.1065 17.7213Z" fill="#F1C36D"/>
<path d="M28.2114 14.6495C27.4153 16.0051 26.1714 17.0249 24.7036 17.5349C24.5046 17.6095 24.3056 17.6717 24.0941 17.7214C22.5393 15.8932 22.1785 12.6471 19.9146 11.59C17.6134 10.5204 14.9141 12.4232 12.4263 11.9009C10.1624 11.4283 8.84391 9.16474 7.61245 7.21213C7.33879 6.78927 7.06514 6.35397 6.7666 5.94355C6.87855 5.88137 6.97806 5.78187 7.04026 5.6575C8.24684 3.5059 10.4112 1.9637 12.8244 1.52841C13.3468 1.42891 13.8693 1.3916 14.3917 1.3916C16.8919 1.3916 19.218 2.4985 20.8351 4.50086C21.0093 4.71229 21.2829 4.82422 21.5566 4.78691C23.211 4.53817 24.8902 4.92372 26.271 5.88137C27.7263 6.87633 28.6966 8.39365 29.0075 10.1224C29.3061 11.677 29.02 13.2814 28.2114 14.6495Z" fill="#FCE8C3"/>
<path d="M12.3767 4.98555C12.5633 4.92337 12.7872 4.86118 12.9862 4.84875C12.7872 4.86118 12.9737 4.84875 13.0111 4.84875C13.0608 4.84875 13.1106 4.83631 13.1479 4.83631C13.2474 4.83631 13.3594 4.82387 13.4589 4.82387C13.6579 4.82387 13.8694 4.83631 14.0684 4.86118C14.1057 4.86118 14.143 4.87362 14.1803 4.87362C14.255 4.88606 13.9937 4.84875 14.1679 4.87362C14.255 4.88606 14.342 4.8985 14.4167 4.92337C14.5908 4.96068 14.7525 4.99799 14.9142 5.06018C14.9516 5.07261 14.9889 5.08505 15.0262 5.09749C15.1381 5.1348 15.0635 5.10993 15.0013 5.08505C15.0884 5.12236 15.163 5.15967 15.2501 5.20942C15.3123 5.24673 15.3869 5.28404 15.4491 5.32135C15.4864 5.34623 15.5237 5.3711 15.5611 5.39598C15.673 5.4706 15.474 5.32135 15.5362 5.3711C15.5984 5.43329 15.6606 5.48304 15.7228 5.54522C15.7601 5.58253 15.785 5.60741 15.8098 5.64472C15.9094 5.75665 15.7103 5.50791 15.8098 5.64472C15.9218 5.8064 16.0586 5.93077 16.2576 5.99295C16.4318 6.0427 16.6681 6.01783 16.8298 5.91833C17.1408 5.71934 17.3398 5.2343 17.1035 4.8985C16.5562 4.15227 15.7725 3.70454 14.8769 3.50555C13.944 3.29412 12.8991 3.26924 11.9786 3.5553C11.6055 3.67967 11.3318 4.07765 11.4562 4.47564C11.5681 4.83631 11.9662 5.10993 12.3767 4.98555Z" fill="white"/>
<path d="M26.1341 9.71155C26.1589 9.92298 26.1589 10.1469 26.1465 10.3583C26.1465 10.4205 26.1341 10.4702 26.1341 10.5324C26.1216 10.6816 26.1465 10.4453 26.1341 10.5324C26.1092 10.6443 26.0967 10.7438 26.0719 10.8558C26.0221 11.0548 25.9724 11.2537 25.9102 11.4403C25.8853 11.5274 25.8604 11.602 25.8231 11.689C25.8106 11.7139 25.7733 11.7761 25.7858 11.801C25.8231 11.7015 25.8355 11.6766 25.8106 11.7264C25.7982 11.7512 25.7858 11.7637 25.7858 11.7885C25.7111 11.9502 25.6365 12.0995 25.5494 12.2487C25.5121 12.3109 25.4624 12.3855 25.425 12.4477C25.4126 12.4726 25.4002 12.485 25.3877 12.5099C25.3504 12.5596 25.3753 12.5348 25.4375 12.4477C25.4126 12.4601 25.3753 12.5348 25.3504 12.5596C25.3006 12.6218 25.2509 12.6716 25.1887 12.7213C25.1514 12.7586 25.1265 12.7835 25.0892 12.8084C25.0643 12.8332 24.9524 12.8954 25.0643 12.8332C25.1638 12.7711 25.0519 12.8457 25.027 12.8581C24.9897 12.883 24.9524 12.9079 24.915 12.9327C24.8404 12.9825 24.7533 13.0198 24.6663 13.0571C24.3055 13.2188 24.1936 13.766 24.3926 14.0769C24.6289 14.4501 25.027 14.5122 25.4126 14.3506C26.1714 14.0023 26.7436 13.2934 27.0794 12.5472C27.4775 11.6766 27.7387 10.6816 27.6392 9.71155C27.6143 9.51256 27.5645 9.33844 27.4153 9.1892C27.2909 9.06483 27.0794 8.96533 26.8928 8.96533C26.5072 8.97777 26.0967 9.30113 26.1341 9.71155Z" fill="white"/>
<path d="M20.8847 5.94339C20.1632 6.06776 19.6657 6.7518 19.7901 7.47314C19.9145 8.19449 20.5986 8.69197 21.3201 8.5676C22.0415 8.44323 22.5391 7.7592 22.4147 7.03785C22.2903 6.3165 21.6062 5.81902 20.8847 5.94339Z" fill="white"/>
</svg>
