<svg width="136" height="89" viewBox="0 0 136 89" fill="none" xmlns="http://www.w3.org/2000/svg">
<g id="Group 71">
<g id="Frame" clip-path="url(#clip0)">
<g id="Group">
<path id="Vector" d="M97.8268 33.928C96.7802 34.0699 95.6982 34.0344 94.6516 33.8216C93.4809 33.5733 92.3456 33.1122 91.1571 33.2363C90.0574 33.3427 89.0285 33.928 87.911 33.9812C86.758 34.0167 85.6937 33.4669 84.5762 33.1477C84.3101 33.0767 84.0441 33.0058 83.7603 32.9526C84.2215 32.119 84.4875 31.1613 84.4875 30.1503V27.827C85.4454 27.8625 86.421 27.7738 87.3789 27.5964C88.7625 27.3481 90.0751 26.887 91.299 26.2485C93.268 27.2772 95.503 27.7028 97.7026 27.49C97.7026 27.7383 97.7026 27.9866 97.7203 28.2349C97.7203 28.3413 97.7203 28.4477 97.7203 28.5542C97.7203 28.6428 97.7203 28.7138 97.7203 28.8024C97.7203 28.8911 97.7203 28.9975 97.7203 29.104C97.7203 29.4232 97.7381 29.7424 97.7381 30.0617C97.7381 30.2213 97.7381 30.3809 97.7381 30.5583C97.7381 30.9662 97.7558 31.3918 97.7558 31.7998C97.7558 31.9948 97.7558 32.1899 97.7558 32.385C97.7558 32.7043 97.7735 33.0235 97.7735 33.3427C97.7735 33.4846 97.7735 33.6265 97.7735 33.7861C97.8268 33.8039 97.8268 33.8571 97.8268 33.928Z" fill="#FCE8C3"/>
<path id="Vector_2" d="M73.4718 32.4203V63.5107C72.3011 63.2447 71.7512 62.9432 71.5206 62.6771C71.4496 62.5884 71.4496 62.553 71.4674 62.5175C71.4674 62.4643 71.4851 62.3934 71.4851 62.3224C71.7867 59.6798 72.0705 44.2676 72.2479 32.1365C72.6204 32.1011 72.9751 32.1011 73.3476 32.1011C73.3831 32.2252 73.4363 32.3316 73.4718 32.4203Z" fill="#FCE8C3"/>
<path id="Vector_3" d="M98.5368 62.6772C97.9869 63.3334 95.6277 64.1138 87.5922 64.2025H86.7763C86.1909 64.2025 85.6055 64.2025 85.0379 64.2025C84.4703 64.2025 83.8849 64.2025 83.2995 64.2025H82.4836C77.8361 64.1493 75.0867 63.8655 73.4902 63.5108V61.5244C77.6765 61.5599 81.8273 62.3048 85.9071 62.9965C86.4924 63.1029 87.0955 63.1916 87.6987 63.2093C88.7807 63.2448 89.8272 63.0319 90.8738 62.8546C93.3927 62.4289 95.9647 62.2516 98.5545 62.1274C98.5545 62.1984 98.5723 62.2693 98.5723 62.3402C98.59 62.4112 98.59 62.4821 98.59 62.5353C98.6077 62.5708 98.6077 62.6063 98.5368 62.6772Z" fill="#FCE8C3"/>
<path id="Vector_4" d="M79.9289 55.0508C80.5143 57.4096 81.4722 59.8748 81.2416 62.2337C78.6695 61.8435 76.0797 61.542 73.4722 61.5243V32.438C74.3591 34.4598 76.399 35.8787 78.7582 35.8787C79.787 35.8787 80.7449 35.6126 81.5786 35.1338C81.5076 36.8896 81.3125 38.6454 80.9578 40.3658C80.5498 42.2812 79.9467 44.1612 79.6096 46.0766C79.0952 49.0562 79.2194 52.1244 79.9289 55.0508Z" fill="#E5A038"/>
<path id="Vector_5" d="M98.5536 62.1097C95.9638 62.2338 93.3918 62.4112 90.8729 62.8368C89.8263 63.0142 88.7798 63.227 87.6977 63.1915C87.0946 63.1738 86.4915 63.0851 85.9062 62.9787C84.3629 62.7127 82.8197 62.4466 81.2587 62.2161C81.4893 59.875 80.5315 57.4097 79.9461 55.0332C79.2188 52.1068 79.1124 49.0386 79.6268 46.0767C79.9638 44.1436 80.5669 42.2814 80.9749 40.3659C81.3297 38.6278 81.5248 36.8898 81.5958 35.1339C82.5182 34.6196 83.2809 33.857 83.7953 32.917C84.0614 32.9702 84.3452 33.0411 84.6113 33.1121C85.7111 33.4313 86.7931 33.9989 87.9461 33.9457C89.0636 33.9102 90.0747 33.3072 91.1922 33.2008C92.3807 33.0943 93.5159 33.5555 94.6867 33.786C95.7332 33.9989 96.8153 34.0343 97.8618 33.8924C97.8618 34.0343 97.8618 34.1585 97.8618 34.3004C97.8618 34.389 97.8618 34.46 97.8618 34.5487C97.8618 34.7615 97.8618 34.9743 97.8796 35.1871C97.8796 35.4 97.8796 35.6305 97.8973 35.8434C97.8973 36.3222 97.915 36.7833 97.915 37.2622C97.915 37.3331 97.915 37.4218 97.915 37.4928C98.0037 42.7957 98.1102 48.276 98.2166 52.763C98.2343 53.2064 98.2343 53.6144 98.2521 54.04C98.2521 54.2883 98.2698 54.5189 98.2698 54.7494C98.3053 55.6539 98.323 56.523 98.3408 57.3033C98.3585 57.7467 98.3762 58.1546 98.3762 58.5626C98.3762 58.8109 98.394 59.0414 98.394 59.2542C98.4294 60.0346 98.4649 60.7086 98.4827 61.2406C98.5004 61.6131 98.5181 61.8968 98.5536 62.1097Z" fill="#EEB448"/>
<path id="Vector_6" d="M73.3473 32.1188C72.9748 32.1188 72.6201 32.1188 72.2476 32.1543C72.283 30.1325 72.3008 28.1815 72.3363 26.4257C72.3363 26.1774 72.3363 25.9469 72.354 25.7163C72.5669 25.7518 72.7797 25.7873 72.9926 25.805V30.1325C72.9926 30.8241 73.1167 31.4981 73.3473 32.1188Z" fill="#FCE8C3"/>
<path id="Vector_7" d="M90.5368 30.6112C89.0113 30.8595 87.9825 32.3138 88.2308 33.839C88.4792 35.3643 89.9337 36.393 91.4592 36.1447C92.9847 35.8964 94.0135 34.4421 93.7652 32.9168C93.5168 31.3915 92.0623 30.3451 90.5368 30.6112Z" fill="#FCE8C3"/>
<path id="Vector_8" d="M99.9204 33.0589C99.885 33.0589 99.8495 33.0589 99.7963 33.0589C99.7963 33.4491 99.814 33.8215 99.814 34.2117C99.814 34.2472 99.814 34.2826 99.814 34.3004C99.8495 34.3004 99.885 34.3004 99.9027 34.3004C102.741 34.3004 105.242 35.8079 105.242 37.546V49.7303C105.242 51.3974 102.9 52.8872 100.169 52.9759C100.187 53.4015 100.187 53.8095 100.204 54.2174C103.681 54.111 106.484 52.1423 106.484 49.7303V37.546C106.501 35.0807 103.539 33.0589 99.9204 33.0589ZM108.399 31.374C106.111 29.6005 103.113 28.625 99.9204 28.625C99.8672 28.625 99.7963 28.625 99.743 28.625C99.069 28.625 98.4127 28.6782 97.7563 28.7846C97.7563 28.8733 97.7563 28.9797 97.7563 29.0861C97.7563 29.4054 97.7741 29.7246 97.7741 30.0438C98.4127 29.9374 99.0867 29.8842 99.7608 29.8842C99.814 29.8842 99.8672 29.8842 99.9204 29.8842C105.934 29.8842 110.83 33.6974 110.83 38.3973V48.9499C110.83 53.5434 106.147 57.2856 100.293 57.4452C100.169 57.4452 100.045 57.4452 99.9027 57.4452C99.3528 57.4452 98.8206 57.4098 98.3062 57.3566C98.324 57.7999 98.3417 58.2079 98.3417 58.6158C98.8561 58.669 99.3705 58.6867 99.9027 58.6867C100.045 58.6867 100.187 58.6867 100.328 58.6867C103.362 58.598 106.2 57.6403 108.382 55.9377C110.759 54.0932 112.053 51.6102 112.053 48.9499V38.3973C112.071 35.7192 110.776 33.2362 108.399 31.374ZM100.187 52.9759C100.204 53.4015 100.204 53.8095 100.222 54.2174C103.699 54.111 106.501 52.1423 106.501 49.7303V37.546C106.501 35.0807 103.539 33.0589 99.9204 33.0589C99.885 33.0589 99.8495 33.0589 99.7963 33.0589C99.7963 33.4491 99.814 33.8215 99.814 34.2117C99.814 34.2472 99.814 34.2826 99.814 34.3004C99.8495 34.3004 99.885 34.3004 99.9027 34.3004C102.741 34.3004 105.242 35.8079 105.242 37.546V49.7303C105.26 51.4152 102.918 52.8872 100.187 52.9759ZM97.845 34.5841C97.845 34.797 97.845 35.0098 97.845 35.2226C97.845 35.4354 97.845 35.666 97.8628 35.8788C97.8628 36.3577 97.8805 36.8188 97.8805 37.2977C97.8805 37.3686 97.8805 37.4573 97.8805 37.5282C97.9692 42.8312 98.0756 48.3114 98.1821 52.7985L97.845 34.5841ZM97.845 34.5841C97.845 34.797 97.845 35.0098 97.845 35.2226C97.845 35.4354 97.845 35.666 97.8628 35.8788C97.8628 36.3577 97.8805 36.8188 97.8805 37.2977C97.8805 37.3686 97.8805 37.4573 97.8805 37.5282C97.9692 42.8312 98.0756 48.3114 98.1821 52.7985L97.845 34.5841ZM97.845 34.5841C97.845 34.797 97.845 35.0098 97.845 35.2226C97.845 35.4354 97.845 35.666 97.8628 35.8788C97.8628 36.3577 97.8805 36.8188 97.8805 37.2977C97.8805 37.3686 97.8805 37.4573 97.8805 37.5282C97.9692 42.8312 98.0756 48.3114 98.1821 52.7985L97.845 34.5841ZM99.9204 33.0589C99.885 33.0589 99.8495 33.0589 99.7963 33.0589C99.1045 33.0589 98.4481 33.1476 97.8096 33.2894L97.8273 34.5664C98.4481 34.4068 99.1045 34.3004 99.7963 34.3004C99.8317 34.3004 99.8672 34.3004 99.8849 34.3004C102.723 34.3004 105.224 35.8079 105.224 37.546V49.7303C105.224 51.3974 102.883 52.8872 100.151 52.9759C100.062 52.9759 99.9736 52.9759 99.8849 52.9759C99.2818 52.9759 98.7142 52.9049 98.1643 52.7808L98.1821 54.0577C98.732 54.1642 99.2818 54.2174 99.8849 54.2174C99.9914 54.2174 100.08 54.2174 100.187 54.2174C103.663 54.111 106.466 52.1423 106.466 49.7303V37.546C106.501 35.0807 103.539 33.0589 99.9204 33.0589ZM99.9204 33.0589C99.885 33.0589 99.8495 33.0589 99.7963 33.0589C99.1045 33.0589 98.4481 33.1476 97.8096 33.2894L97.8273 34.5664C98.4481 34.4068 99.1045 34.3004 99.7963 34.3004C99.8317 34.3004 99.8672 34.3004 99.8849 34.3004C102.723 34.3004 105.224 35.8079 105.224 37.546V49.7303C105.224 51.3974 102.883 52.8872 100.151 52.9759C100.062 52.9759 99.9736 52.9759 99.8849 52.9759C99.2818 52.9759 98.7142 52.9049 98.1643 52.7808L98.1821 54.0577C98.732 54.1642 99.2818 54.2174 99.8849 54.2174C99.9914 54.2174 100.08 54.2174 100.187 54.2174C103.663 54.111 106.466 52.1423 106.466 49.7303V37.546C106.501 35.0807 103.539 33.0589 99.9204 33.0589ZM99.9204 33.0589C99.885 33.0589 99.8495 33.0589 99.7963 33.0589C99.1045 33.0589 98.4481 33.1476 97.8096 33.2894L97.8273 34.5664C98.4481 34.4068 99.1045 34.3004 99.7963 34.3004C99.8317 34.3004 99.8672 34.3004 99.8849 34.3004C102.723 34.3004 105.224 35.8079 105.224 37.546V49.7303C105.224 51.3974 102.883 52.8872 100.151 52.9759C100.062 52.9759 99.9736 52.9759 99.8849 52.9759C99.2818 52.9759 98.7142 52.9049 98.1643 52.7808L98.1821 54.0577C98.732 54.1642 99.2818 54.2174 99.8849 54.2174C99.9914 54.2174 100.08 54.2174 100.187 54.2174C103.663 54.111 106.466 52.1423 106.466 49.7303V37.546C106.501 35.0807 103.539 33.0589 99.9204 33.0589Z" fill="#292D3C"/>
<path id="Vector_9" d="M102.137 64.0784C102.137 65.6569 94.4741 66.9338 85.0373 66.9338C75.5827 66.9338 67.9375 65.6569 67.9375 64.0784C67.9375 63.6528 68.5051 63.2448 69.4985 62.8901C70.0306 62.695 70.7047 62.5177 71.4852 62.3403C71.4852 62.4113 71.4674 62.4822 71.4674 62.5354C71.4674 62.5886 71.4497 62.6064 71.5206 62.695C72.0705 63.3513 74.4297 64.1316 82.4652 64.2203H83.2812C83.8665 64.2203 84.4519 64.2203 85.0195 64.2203C85.5871 64.2203 86.1725 64.2203 86.7579 64.2203H87.5738C95.627 64.1316 97.9685 63.3513 98.5184 62.695C98.5894 62.6064 98.5893 62.5709 98.5716 62.5354C98.5539 62.4822 98.5539 62.4113 98.5539 62.3403C99.3344 62.5 100.008 62.695 100.541 62.8901C101.569 63.2448 102.137 63.6528 102.137 64.0784Z" fill="#292D3C"/>
<g id="Group_2">
<path id="Vector_10" d="M78.7578 45.8286C76.2567 45.8286 74.2168 43.7891 74.2168 41.2883C74.2168 38.7876 76.2567 36.748 78.7578 36.748C81.2589 36.748 83.2988 38.7876 83.2988 41.2883C83.2988 43.7891 81.2589 45.8286 78.7578 45.8286ZM78.7578 38.5039C77.2323 38.5039 75.9906 39.7454 75.9906 41.2706C75.9906 42.7959 77.2323 44.0374 78.7578 44.0374C80.2833 44.0374 81.525 42.7959 81.525 41.2706C81.525 39.7454 80.2833 38.5039 78.7578 38.5039Z" fill="#292D3C"/>
</g>
<g id="Group_3">
<path id="Vector_11" d="M91.0512 46.0946C90.6077 46.1655 90.2885 46.5912 90.3772 47.0523C90.4481 47.4957 90.8738 47.8149 91.335 47.7262C91.7785 47.6553 92.0978 47.2296 92.0091 46.7685C91.9204 46.3074 91.4947 46.0059 91.0512 46.0946Z" fill="#FCE8C3"/>
<path id="Vector_12" d="M86.5094 42.8666C86.5803 43.31 87.006 43.6292 87.4672 43.5406C87.9107 43.4696 88.23 43.044 88.1413 42.5828C88.0703 42.1395 87.6446 41.8202 87.1834 41.9089C86.74 41.9976 86.4384 42.4232 86.5094 42.8666Z" fill="#FCE8C3"/>
<path id="Vector_13" d="M84.9666 47.7082C85.1085 48.524 85.8713 49.0738 86.705 48.9497C87.5209 48.8078 88.0708 48.0452 87.9467 47.2116C87.8048 46.3958 87.042 45.846 86.2083 45.9701C85.3746 46.112 84.8247 46.8924 84.9666 47.7082Z" fill="#FCE8C3"/>
<path id="Vector_14" d="M88.6739 52.5858C88.7449 53.0292 89.1706 53.3485 89.6318 53.2598C90.0753 53.1888 90.3945 52.7632 90.3059 52.3021C90.2349 51.8587 89.8092 51.5394 89.348 51.6281C88.9045 51.6991 88.603 52.1247 88.6739 52.5858Z" fill="#FCE8C3"/>
<path id="Vector_15" d="M93.9774 41.6252C93.3211 41.7316 92.8776 42.3523 93.0018 43.0085C93.1082 43.6647 93.7291 44.1081 94.3854 43.984C95.0417 43.8776 95.4852 43.2568 95.361 42.6006C95.2369 41.9621 94.616 41.5187 93.9774 41.6252Z" fill="#FCE8C3"/>
</g>
<g id="Group_4">
<path id="Vector_16" d="M69.978 59.0767C71.0246 59.3427 72.0711 59.6265 73.1 59.8748C73.366 59.928 73.6144 59.9989 73.8805 60.0521L74.6609 60.2295L75.4414 60.3891L76.2219 60.5487L77.0024 60.6906L77.7829 60.8147L78.5634 60.9389C78.8295 60.9744 79.0955 61.0098 79.3439 61.0453C80.3904 61.1872 81.4547 61.3113 82.5013 61.4532C81.437 61.5951 80.3727 61.6306 79.3261 61.5774C78.794 61.5596 78.2618 61.5064 77.7297 61.4532L76.9315 61.3468L76.1332 61.2049L75.3527 61.0276L74.5723 60.8325L73.7918 60.6019C73.5257 60.531 73.2774 60.4423 73.0113 60.3536C72.0002 60.0521 70.9714 59.6087 69.978 59.0767Z" fill="#292D3C"/>
<path id="Vector_17" d="M70.0317 57.2681C71.0073 57.4632 71.9652 57.6228 72.9408 57.8001L75.8499 58.3322L78.759 58.882C79.7346 59.0771 80.6925 59.2545 81.6681 59.5028C80.6925 59.556 79.6991 59.5028 78.7235 59.4141C78.2269 59.3786 77.7479 59.3077 77.2512 59.2545C76.7723 59.1835 76.2756 59.0948 75.7967 59.0239C75.3178 58.9175 74.8211 58.8288 74.3422 58.7224C73.8632 58.5982 73.3843 58.4918 72.8876 58.3499C71.9297 58.0484 70.9719 57.7292 70.0317 57.2681Z" fill="#292D3C"/>
<path id="Vector_18" d="M70.085 55.6895C70.759 55.7959 71.4153 55.92 72.0717 56.0442L73.0473 56.2215C73.2069 56.2393 73.3666 56.2747 73.5439 56.3102L74.0406 56.3811C74.6969 56.4876 75.3533 56.5762 76.0096 56.6649C76.6659 56.7536 77.3222 56.8245 77.9963 56.9309C77.3399 57.1083 76.6659 57.1792 75.9918 57.197C75.3178 57.2147 74.6437 57.1615 73.9874 57.0551C73.6504 57.0019 73.3311 56.9309 72.9941 56.8423C72.657 56.7536 72.3377 56.6649 72.0007 56.5408C71.3444 56.3457 70.7058 56.0619 70.085 55.6895Z" fill="#292D3C"/>
<path id="Vector_19" d="M70.1377 53.7207C70.5279 53.7207 70.9004 53.7739 71.2907 53.8449C71.6632 53.9158 72.0357 53.9867 72.4082 54.0754C72.7807 54.1641 73.1532 54.2705 73.5257 54.3947C73.8982 54.5188 74.2707 54.6784 74.6255 54.8912C74.2353 54.9622 73.8627 54.9622 73.4725 54.9267C73.1 54.8912 72.7098 54.838 72.3373 54.7494C71.9647 54.6607 71.5922 54.5365 71.2197 54.3769C70.8295 54.1818 70.4747 53.9867 70.1377 53.7207Z" fill="#292D3C"/>
</g>
<g id="Group_5">
<path id="Vector_20" d="M99.796 32.3847C99.388 32.2428 98.9978 32.101 98.5898 31.9768C98.3592 31.9059 98.1108 31.8349 97.8802 31.7817L97.7915 31.764L97.1707 31.6221L96.4612 31.4802L95.7516 31.3561L95.0421 31.2674L94.3326 31.2142C93.8536 31.1964 93.3924 31.1787 92.9135 31.1787C91.9734 31.1964 91.0332 31.2851 90.1108 31.4802C91.051 31.5512 91.9911 31.6044 92.9312 31.6753C93.1618 31.693 93.3924 31.7285 93.6408 31.7462L94.3503 31.8172L95.0598 31.8881L95.7694 31.9768L96.4789 32.0832L97.1884 32.1896L97.8448 32.2961L97.898 32.3138C98.1286 32.367 98.3592 32.4025 98.6075 32.4379C99.0155 32.5089 99.4235 32.5976 99.8492 32.6862L99.796 32.3847Z" fill="#292D3C"/>
<path id="Vector_21" d="M99.814 34.2115C99.4947 34.1228 99.1577 34.0341 98.8384 33.9632C98.5014 33.8745 98.1643 33.8035 97.8273 33.7503C97.7386 33.7326 97.6322 33.7149 97.5435 33.6971C97.1 33.6085 96.6743 33.5553 96.2309 33.4843C95.7874 33.4311 95.3617 33.3779 94.9182 33.3424C94.4748 33.307 94.049 33.2715 93.6056 33.2715C92.7364 33.236 91.8672 33.2537 90.998 33.3602C91.8672 33.5375 92.7364 33.6617 93.6056 33.7681L96.2131 34.1228L97.8273 34.3356L98.8207 34.4598C99.1577 34.4952 99.477 34.5484 99.814 34.5839V34.2115Z" fill="#292D3C"/>
<path id="Vector_22" d="M99.8485 36.1095C99.813 36.1095 99.7598 36.0917 99.7243 36.0917L98.8374 35.9853C98.6955 35.9676 98.5359 35.9498 98.394 35.9321L97.9505 35.8789C97.915 35.8789 97.8795 35.8789 97.8441 35.8612C97.2942 35.8079 96.7443 35.7547 96.1767 35.7193C95.5913 35.6838 95.0059 35.6483 94.4028 35.5774C94.9705 35.3646 95.5558 35.2582 96.1589 35.2049C96.7088 35.1517 97.2764 35.1517 97.8263 35.2049C97.8618 35.2049 97.8973 35.2049 97.9328 35.2227C98.2343 35.2582 98.5359 35.3114 98.8197 35.3646C99.1212 35.4355 99.4228 35.4887 99.7066 35.5951C99.7421 35.6129 99.7776 35.6129 99.7953 35.6306C99.8485 35.7902 99.8485 35.9498 99.8485 36.1095Z" fill="#292D3C"/>
</g>
<path id="Vector_23" d="M100.559 62.2162C100.523 62.0389 100.505 61.7196 100.47 61.2763C100.434 60.7619 100.399 60.1057 100.381 59.2899C100.364 59.0948 100.364 58.882 100.364 58.6691C100.346 58.2789 100.328 57.871 100.328 57.4276C100.293 56.6295 100.275 55.7428 100.257 54.7851C100.257 54.6077 100.239 54.4126 100.239 54.2175C100.222 53.8096 100.222 53.4017 100.204 52.976C100.204 52.9228 100.204 52.8519 100.204 52.7987C100.097 48.684 100.009 43.5762 99.9023 38.0782C99.9023 37.8654 99.9023 37.6525 99.8846 37.4397C99.8846 36.9963 99.8668 36.5707 99.8668 36.1273C99.8668 35.9677 99.8668 35.808 99.8668 35.6307C99.8668 35.2937 99.8491 34.939 99.8491 34.602C99.8491 34.5133 99.8491 34.4069 99.8491 34.3182C99.8491 34.2828 99.8491 34.2473 99.8491 34.2296C99.8491 33.8571 99.8314 33.4669 99.8314 33.0768C99.8314 32.9703 99.8314 32.8639 99.8314 32.7398C99.8314 32.6156 99.8314 32.5092 99.8314 32.3851C99.8314 31.7643 99.8136 31.1436 99.8136 30.5228C99.8136 30.31 99.8136 30.0795 99.7959 29.8666C99.7959 29.6006 99.7781 29.3346 99.7781 29.0685C99.7781 28.9266 99.7781 28.767 99.7781 28.6251C99.7781 28.5897 99.7781 28.5719 99.7781 28.5365C99.7781 28.2704 99.7781 28.0221 99.7604 27.7561C99.7604 27.5433 99.7604 27.3127 99.7427 27.0999C99.7427 26.7274 99.7249 26.3727 99.7249 26.0003C99.175 26.2308 98.6074 26.4082 98.022 26.5146C97.9334 26.5324 97.8447 26.5501 97.756 26.5501C97.756 26.7274 97.756 26.9048 97.7737 27.0822C97.7737 27.2063 97.7737 27.3305 97.7737 27.4546C97.7737 27.7029 97.7737 27.9512 97.7915 28.1995C97.7915 28.3059 97.7915 28.4123 97.7915 28.5187C97.7915 28.6074 97.7915 28.6784 97.7915 28.767C97.7915 28.8557 97.7915 28.9621 97.7915 29.0685C97.7915 29.3878 97.8092 29.707 97.8092 30.0263C97.8092 30.1859 97.8092 30.3455 97.8092 30.5228C97.8092 30.9308 97.8269 31.3564 97.8269 31.7643C97.8269 31.9594 97.8269 32.1545 97.8269 32.3496C97.8269 32.6688 97.8447 32.9881 97.8447 33.3073C97.8447 33.4492 97.8447 33.5911 97.8447 33.7507C97.8447 33.9458 97.8447 34.1409 97.8624 34.3537C97.8624 34.4424 97.8624 34.5133 97.8624 34.602C97.8624 34.8148 97.8624 35.0277 97.8801 35.2405C97.8801 35.4533 97.8801 35.6839 97.8979 35.8967C97.8979 36.3756 97.9156 36.8367 97.9156 37.3156C97.9156 37.3865 97.9156 37.4752 97.9156 37.5461C98.0043 42.849 98.1107 48.3293 98.2172 52.8164C98.2349 53.2598 98.2349 53.6677 98.2526 54.0934C98.2526 54.3417 98.2704 54.5722 98.2704 54.8028C98.3059 55.7073 98.3236 56.5763 98.3413 57.3567C98.3591 57.8001 98.3768 58.208 98.3768 58.6159C98.3768 58.8642 98.3946 59.0948 98.3946 59.3076C98.43 60.088 98.4655 60.7619 98.4832 61.294C98.501 61.7551 98.5365 62.1098 98.5719 62.3581C98.5897 62.4291 98.5897 62.5 98.5897 62.5532C98.5897 62.5887 98.6074 62.6242 98.5365 62.7128C97.9866 63.369 95.6274 64.1494 87.5919 64.2381H86.7759C86.1906 64.2381 85.6052 64.2381 85.0376 64.2381C84.47 64.2381 83.8846 64.2381 83.2992 64.2381H82.4833C74.43 64.1494 72.0886 63.369 71.5387 62.7128C71.4677 62.6242 71.4677 62.5887 71.4855 62.5532C71.4855 62.5 71.5032 62.4291 71.5032 62.3581C71.8402 59.2721 72.1773 38.7876 72.3547 26.4437C72.3547 26.1954 72.3547 25.9648 72.3724 25.7343C72.3724 25.3973 72.3901 25.0603 72.3901 24.7411C71.6629 24.5282 71.0065 24.1735 70.4212 23.7124C70.4212 24.1913 70.4034 24.6524 70.4034 25.1312C70.4034 25.3086 70.4034 25.486 70.4034 25.681C70.1728 42.7426 69.8358 60.354 69.552 62.2517C69.5165 62.4823 69.5165 62.6951 69.552 62.9079C69.6052 63.2981 69.7826 63.6706 70.0664 63.9898C71.3436 65.4973 74.9445 66.1358 82.4655 66.2067C82.5187 66.2067 82.5542 66.2067 82.6074 66.2067H83.317C83.7959 66.2067 84.2748 66.2067 84.736 66.2067H85.3746C85.8358 66.2067 86.3147 66.2067 86.7937 66.2067H87.5209C87.5742 66.2067 87.6096 66.2067 87.6629 66.2067C95.2017 66.1358 98.8025 65.4796 100.08 63.9898C100.364 63.6528 100.523 63.2981 100.594 62.8902C100.594 62.6596 100.594 62.4468 100.559 62.2162Z" fill="#292D3C"/>
<path id="Vector_24" d="M110.829 38.3794V48.9321C110.829 53.5256 106.146 57.2678 100.292 57.4274C100.257 56.6293 100.239 55.7425 100.221 54.7848C100.221 54.6074 100.203 54.4123 100.203 54.2172C103.68 54.1108 106.483 52.1422 106.483 49.7302V37.5458C106.483 35.0806 103.52 33.0588 99.9018 33.0588C99.8664 33.0588 99.8309 33.0588 99.7777 33.0588C99.7777 32.9523 99.7777 32.8459 99.7777 32.7218C99.7777 32.5976 99.7777 32.4912 99.7777 32.3671C99.7777 31.7463 99.7599 31.1256 99.7599 30.5048C99.7599 30.292 99.7599 30.0615 99.7422 29.8486C99.7954 29.8486 99.8486 29.8486 99.9018 29.8486C105.933 29.8664 110.829 33.6795 110.829 38.3794Z" fill="#EEB448"/>
<path id="Vector_25" d="M107.814 14.0818C107.264 11.0845 105.579 8.47742 103.078 6.75707C100.825 5.19635 98.1285 4.50466 95.4323 4.78843C92.2217 1.0817 87.2904 -0.656377 82.4301 0.230399C78.4922 0.93982 75.1042 3.29864 73.0465 6.70387C72.8159 6.7216 72.5853 6.75707 72.3547 6.81028C69.8359 7.2714 67.6363 8.69024 66.1818 10.8008C64.7272 12.9113 64.1774 15.4652 64.6386 17.9837C65.153 20.8036 66.8913 23.2334 69.4102 24.6345C69.7295 24.8118 70.0487 24.9715 70.3858 25.1133C70.8825 25.3262 71.3791 25.4858 71.8935 25.6099C72.0532 25.6454 72.2128 25.6809 72.3547 25.6986C72.5676 25.7341 72.7805 25.7696 72.9933 25.7873V30.1148C72.9933 33.2894 75.5831 35.8788 78.7583 35.8788C81.9334 35.8788 84.5232 33.2894 84.5232 30.1148V27.7914C85.4811 27.8269 86.4567 27.7382 87.4146 27.5608C88.7982 27.3125 90.1108 26.8514 91.3348 26.2129C93.3037 27.2416 95.5387 27.6673 97.7383 27.4544C97.827 27.4544 97.8979 27.4367 97.9866 27.4367C98.2172 27.419 98.4478 27.3835 98.6607 27.3303C99.0155 27.2593 99.3702 27.1884 99.725 27.082C99.9556 27.011 100.168 26.9401 100.399 26.8692C102.936 25.9824 105.082 24.2088 106.448 21.8855C107.814 19.5444 108.31 16.7599 107.814 14.0818Z" fill="#292D3C"/>
<path id="Vector_26" d="M98.8558 25.2728C98.6784 25.326 98.4833 25.3614 98.2882 25.3969C98.1108 25.4324 97.9334 25.4501 97.7383 25.4856C95.7161 25.7339 93.6407 25.3082 91.8846 24.2973C91.5476 24.1022 91.1219 24.1022 90.7849 24.2973C89.6319 24.9535 88.3725 25.3969 87.0598 25.6452C85.96 25.8403 84.8425 25.8935 83.7605 25.7871C83.4412 25.7516 83.1396 25.858 82.909 26.0709C82.6784 26.2837 82.5543 26.5852 82.5543 26.8867V30.1323C82.5543 32.2251 80.8514 33.91 78.776 33.91C76.6829 33.91 74.9977 32.2074 74.9977 30.1323V24.989C74.9977 24.386 74.5188 23.8894 73.9157 23.8894C73.4013 23.8717 72.8691 23.8007 72.3547 23.6943C71.6629 23.5347 71.0066 23.2687 70.3858 22.9317C68.3813 21.8143 67.0155 19.8989 66.5898 17.6465C66.2173 15.6424 66.6607 13.6205 67.8137 11.9534C68.9667 10.2685 70.7051 9.15117 72.7095 8.77873C73.0111 8.72552 73.3126 8.69005 73.6319 8.67232C73.8093 8.65458 73.9867 8.60137 74.1463 8.5127C74.572 9.09797 74.9623 9.70098 75.3525 10.3217C77.1086 13.1062 79.0066 16.3341 82.2173 17.008C85.7649 17.7529 89.6141 15.0394 92.8957 16.5646C96.1241 18.0367 96.6385 22.6656 98.8558 25.2728Z" fill="#F1C36D"/>
<path id="Vector_27" d="M104.71 20.8924C103.575 22.8256 101.801 24.2799 99.7076 25.007C99.4238 25.1134 99.14 25.2021 98.8384 25.2731C96.6211 22.6659 96.1067 18.037 92.8783 16.5295C89.5967 15.0042 85.7475 17.7177 82.1999 16.9728C78.9715 16.2989 77.0912 13.071 75.3351 10.2866C74.9449 9.68354 74.5546 9.0628 74.1289 8.47753C74.2886 8.38885 74.4305 8.24697 74.5191 8.06961C76.2398 5.00137 79.3262 2.80216 82.7675 2.18142C83.5125 2.03953 84.2575 1.98633 85.0025 1.98633C88.5679 1.98633 91.885 3.56479 94.191 6.42021C94.4393 6.72171 94.8295 6.88133 95.2198 6.82813C97.579 6.47341 99.9737 7.02322 101.943 8.38885C104.018 9.80769 105.402 11.9714 105.845 14.4367C106.271 16.6536 105.863 18.9415 104.71 20.8924Z" fill="#FCE8C3"/>
<g id="Group_6">
<path id="Vector_28" d="M25.596 29.1746L23.9995 28.8909V27.4897H35.2279L35.4407 31.2319H33.6492L32.8509 29.0505L29.0195 28.8022V34.3357L31.627 34.2825L32.035 32.4912H33.4363V37.8296H32.0527L31.627 35.9673L29.0195 35.8964V40.7914L32.0705 41.0042V42.3166H24.1059V41.0042L25.596 40.7914V29.1746Z" fill="#292D3C"/>
<path id="Vector_29" d="M37.9946 40.5255C36.9125 39.1776 36.3804 37.3153 36.3804 34.9388C36.3804 33.4135 36.6642 32.0656 37.2318 30.9128C37.7994 29.76 38.5977 28.8732 39.6265 28.2525C40.6553 27.6317 41.8438 27.3125 43.2274 27.3125C45.5156 27.3125 47.2008 27.951 48.2828 29.2279C49.3648 30.5049 49.9147 32.3139 49.9147 34.6727C49.9147 36.2335 49.6309 37.5991 49.0633 38.7874C48.4957 39.9757 47.6797 40.8979 46.6331 41.5541C45.5866 42.2103 44.3804 42.5473 42.9968 42.5473C40.7263 42.5473 39.0766 41.8734 37.9946 40.5255ZM40.9214 30.2211C40.3892 31.2675 40.1409 32.846 40.1409 34.9388C40.1409 37.067 40.407 38.6455 40.9214 39.6742C41.4358 40.7028 42.1808 41.2171 43.1387 41.2171C44.0788 41.2171 44.8238 40.6496 45.3382 39.5323C45.8704 38.4149 46.1187 36.801 46.1187 34.6905C46.1187 32.5622 45.8704 31.0192 45.356 30.0615C44.8416 29.1038 44.1143 28.6427 43.1387 28.6427C42.1985 28.6427 41.4535 29.157 40.9214 30.2211Z" fill="#292D3C"/>
<path id="Vector_30" d="M52.5937 40.5255C51.5116 39.1776 50.9795 37.3153 50.9795 34.9388C50.9795 33.4135 51.2633 32.0656 51.8309 30.9128C52.3986 29.76 53.1968 28.8732 54.2256 28.2525C55.2544 27.6317 56.4429 27.3125 57.8265 27.3125C60.1147 27.3125 61.7999 27.951 62.8819 29.2279C63.964 30.5049 64.5138 32.3139 64.5138 34.6727C64.5138 36.2335 64.23 37.5991 63.6624 38.7874C63.0948 39.9757 62.2788 40.8979 61.2323 41.5541C60.1857 42.2103 58.9795 42.5473 57.5959 42.5473C55.3254 42.5473 53.6757 41.8734 52.5937 40.5255ZM55.5205 30.2211C54.9884 31.2675 54.74 32.846 54.74 34.9388C54.74 37.067 55.0061 38.6455 55.5205 39.6742C56.0349 40.7028 56.7799 41.2171 57.7378 41.2171C58.6779 41.2171 59.4229 40.6496 59.9374 39.5323C60.4695 38.4149 60.7178 36.801 60.7178 34.6905C60.7178 32.5622 60.4695 31.0192 59.9551 30.0615C59.4407 29.1038 58.7134 28.6427 57.7378 28.6427C56.7799 28.6427 56.0527 29.157 55.5205 30.2211Z" fill="#292D3C"/>
<path id="Vector_31" d="M25.5965 46.7329L24.1064 46.4491V45.048H27.2639C27.7251 45.048 28.3104 45.0302 29.0554 44.977C29.2151 44.9593 29.4102 44.9416 29.6585 44.9416C29.9069 44.9238 30.173 44.9238 30.4922 44.9238C31.9468 44.9238 33.082 45.0657 33.9157 45.3317C34.7494 45.5978 35.3171 45.9702 35.6364 46.4668C35.9557 46.9634 36.133 47.5842 36.133 48.329C36.133 49.3222 35.8315 50.1558 35.2106 50.812C34.5898 51.4682 33.8093 51.8584 32.8514 51.9826C34.1818 51.9826 35.2284 52.2841 35.9911 52.8871C36.7539 53.4901 37.1441 54.3237 37.1441 55.4233C37.1441 56.8421 36.6474 57.9772 35.6718 58.793C34.6962 59.6266 33.0288 60.0345 30.6874 60.0345C30.3149 60.0345 29.9601 60.0168 29.6053 59.999C29.2506 59.9813 29.02 59.9636 28.8603 59.9636C28.3814 59.9281 27.867 59.9103 27.2993 59.9103H24.0532V58.5979L25.5965 58.3496V46.7329ZM30.5987 51.5037C31.3259 51.5037 31.8758 51.2554 32.2129 50.7588C32.5676 50.2622 32.7273 49.5528 32.7273 48.6483C32.7273 47.8147 32.5322 47.194 32.1596 46.8038C31.7871 46.4136 31.184 46.2185 30.3503 46.2185C30.1552 46.2185 29.9246 46.2363 29.6585 46.254C29.3925 46.2717 29.1619 46.2895 28.9845 46.3249V51.4505C29.2151 51.486 29.7472 51.5037 30.5987 51.5037ZM30.5455 58.6334C31.5388 58.6334 32.2483 58.3674 32.6918 57.853C33.1353 57.3387 33.3659 56.5761 33.3659 55.6006C33.3659 54.6606 33.153 54.0044 32.745 53.5965C32.337 53.1886 31.6807 52.9935 30.7938 52.9935C30.0665 52.9935 29.4634 53.0112 28.9845 53.029V58.456C29.2328 58.5802 29.765 58.6334 30.5455 58.6334Z" fill="#292D3C"/>
<path id="Vector_32" d="M42.9271 44.9946H46.528L50.998 58.3672L52.0978 58.5623V59.8747H45.8007V58.5623L47.2198 58.3672L46.5457 55.9729H41.7741L41.1 58.3849L42.661 58.5623V59.8747H37.3395L37.3218 58.5623L38.4748 58.3495L42.9271 44.9946ZM44.4171 48.4708L44.1156 47.0697L43.7963 48.4885L42.1821 54.4299H46.1377L44.4171 48.4708Z" fill="#292D3C"/>
<path id="Vector_33" d="M52.4878 58.5626L54.031 58.3675V46.7153L52.5765 46.4315V45.0481H55.6452C55.8936 45.0481 56.1774 45.0481 56.4789 45.0304C56.7805 45.0127 57.0111 44.9949 57.1707 44.9949C57.898 44.9417 58.5011 44.9062 59.0155 44.9062C60.4346 44.9062 61.5698 45.0481 62.4035 45.3142C63.2372 45.5802 63.8581 46.0059 64.2306 46.5911C64.6031 47.1764 64.7982 47.939 64.7982 48.879C64.7982 49.7835 64.5499 50.6348 64.0709 51.4152C63.592 52.1955 62.8825 52.7454 61.9601 53.0291C62.5809 53.2597 63.0953 53.6853 63.5033 54.2883C63.929 54.9091 64.3547 55.6894 64.8159 56.6472C65.082 57.2147 65.2949 57.6226 65.4545 57.8887C65.6142 58.1547 65.7738 58.3143 65.9512 58.3498L66.5366 58.5271V59.8396H62.7406C62.5454 59.8396 62.3326 59.6267 62.1197 59.2011C61.9069 58.7754 61.6408 58.1015 61.3037 57.197C60.8958 56.0974 60.541 55.2461 60.2394 54.6253C59.9379 54.0223 59.6186 53.6499 59.2461 53.5257H57.4545V58.3143L59.2284 58.5094V59.8218H52.5055V58.5626H52.4878ZM60.612 51.4684C61.0022 50.9363 61.1973 50.1205 61.1973 49.0209C61.1973 48.0632 61.0022 47.3538 60.6297 46.9104C60.2572 46.467 59.6186 46.2364 58.7139 46.2364C58.235 46.2364 57.8093 46.2719 57.4545 46.3428V52.2133C57.6319 52.2488 57.9157 52.2665 58.306 52.2665C58.7139 52.2665 58.9268 52.2665 58.98 52.2665C59.6718 52.2842 60.2217 52.0005 60.612 51.4684Z" fill="#292D3C"/>
</g>
<g id="Group_7">
<path id="Vector_34" d="M82.1285 7.11176C82.3945 7.02309 82.7138 6.93441 82.9976 6.91667C82.7138 6.93441 82.9799 6.91667 83.0331 6.91667C83.1041 6.91667 83.175 6.89894 83.2282 6.89894C83.3701 6.89894 83.5298 6.8812 83.6717 6.8812C83.9555 6.8812 84.2571 6.89894 84.5409 6.93441C84.5941 6.93441 84.6473 6.95214 84.7005 6.95214C84.807 6.96988 84.4344 6.91667 84.6828 6.95214C84.807 6.96988 84.9311 6.98761 85.0376 7.02309C85.2859 7.07629 85.5165 7.1295 85.7471 7.21818C85.8003 7.23591 85.8535 7.25365 85.9067 7.27138C86.0664 7.32459 85.9599 7.28912 85.8713 7.25365C85.9954 7.30685 86.1018 7.36006 86.226 7.431C86.3147 7.48421 86.4211 7.53742 86.5098 7.59062C86.563 7.62609 86.6163 7.66157 86.6695 7.69704C86.8291 7.80345 86.5453 7.59062 86.634 7.66157C86.7227 7.75024 86.8114 7.82118 86.9001 7.90986C86.9533 7.96307 86.9888 7.99854 87.0242 8.05175C87.1661 8.21137 86.8823 7.85666 87.0242 8.05175C87.1839 8.28231 87.379 8.45966 87.6628 8.54834C87.9112 8.61928 88.2482 8.58381 88.4788 8.44193C88.9222 8.15816 89.2061 7.46647 88.869 6.98762C88.0885 5.92348 86.971 5.285 85.6939 5.00124C84.3635 4.69973 82.8735 4.66426 81.5608 5.07218C81.0287 5.24953 80.6384 5.81707 80.8158 6.38461C80.9755 6.89894 81.5431 7.28912 82.1285 7.11176Z" fill="white"/>
</g>
<g id="Group_8">
<path id="Vector_35" d="M101.747 13.8512C101.783 14.1527 101.783 14.472 101.765 14.7735C101.765 14.8622 101.747 14.9331 101.747 15.0218C101.729 15.2346 101.765 14.8976 101.747 15.0218C101.712 15.1814 101.694 15.3233 101.658 15.4829C101.588 15.7667 101.517 16.0504 101.428 16.3165C101.392 16.4406 101.357 16.547 101.304 16.6712C101.286 16.7067 101.233 16.7953 101.25 16.8308C101.304 16.6889 101.321 16.6535 101.286 16.7244C101.268 16.7599 101.25 16.7776 101.25 16.8131C101.144 17.0436 101.038 17.2565 100.913 17.4693C100.86 17.558 100.789 17.6644 100.736 17.7531C100.718 17.7885 100.701 17.8063 100.683 17.8417C100.63 17.9127 100.665 17.8772 100.754 17.7531C100.718 17.7708 100.665 17.8772 100.63 17.9127C100.559 18.0014 100.488 18.0723 100.399 18.1432C100.346 18.1964 100.31 18.2319 100.257 18.2674C100.222 18.3029 100.062 18.3915 100.222 18.3029C100.364 18.2142 100.204 18.3206 100.168 18.3383C100.115 18.3738 100.062 18.4093 100.009 18.4447C99.9024 18.5157 99.7782 18.5689 99.654 18.6221C99.1396 18.8527 98.98 19.633 99.2638 20.0764C99.6008 20.6085 100.168 20.6972 100.718 20.4666C101.8 19.97 102.616 18.9591 103.095 17.8949C103.663 16.6535 104.035 15.2346 103.894 13.8512C103.858 13.5675 103.787 13.3192 103.574 13.1063C103.397 12.929 103.095 12.7871 102.829 12.7871C102.279 12.8048 101.694 13.266 101.747 13.8512Z" fill="white"/>
</g>
<path id="Vector_36" d="M94.261 8.4774C93.2322 8.65475 92.5227 9.6302 92.7001 10.6589C92.8774 11.6875 93.8531 12.3969 94.8819 12.2196C95.9107 12.0422 96.6202 11.0668 96.4428 10.0381C96.2655 9.00946 95.2899 8.30004 94.261 8.4774Z" fill="white"/>
</g>
</g>
<g id="[Craft brewery]">
<path d="M0.837891 71.3982C0.837891 70.8849 0.909524 70.4969 1.05279 70.2342C1.208 69.9596 1.42886 69.7746 1.7154 69.6791C2.00193 69.5835 2.38397 69.5358 2.86153 69.5358C3.60174 69.5358 4.47328 69.6492 5.47614 69.876V70.7894H3.04061V85.116H5.47614V86.0293C4.58073 86.2681 3.70919 86.3875 2.86153 86.3875C2.38397 86.3875 2.00193 86.3398 1.7154 86.2442C1.42886 86.1487 1.208 85.9637 1.05279 85.6891C0.909524 85.4264 0.837891 85.0384 0.837891 84.525V71.3982Z" fill="#292D3C"/>
<path d="M13.7084 84.1311C11.6788 84.1311 10.1267 83.5281 9.05221 82.3223C7.97771 81.1046 7.44046 79.4451 7.44046 77.3438C7.44046 75.9589 7.72102 74.7531 8.28215 73.7263C8.85522 72.6876 9.63721 71.8877 10.6281 71.3266C11.6191 70.7655 12.7413 70.4849 13.9949 70.4849C14.5202 70.4849 15.0276 70.5207 15.5171 70.5924C16.0066 70.6521 16.5856 70.7356 17.2542 70.8431C17.7556 70.9267 18.0302 70.9684 18.078 70.9684L17.881 74.6576H16.2334L15.6783 72.0967C15.547 71.9653 15.3201 71.8579 14.9978 71.7743C14.6754 71.6908 14.2635 71.649 13.7621 71.649C12.7473 71.649 11.9295 72.1206 11.3087 73.0637C10.6998 73.995 10.3953 75.35 10.3953 77.1289C10.3953 78.8481 10.6878 80.2509 11.2728 81.3374C11.8578 82.4238 12.7115 82.967 13.8337 82.967C14.371 82.967 14.7829 82.9193 15.0694 82.8238C15.3679 82.7163 15.6186 82.5671 15.8216 82.376L16.6095 80.5315L18.1138 80.6748L17.7556 83.4505C17.5049 83.4744 17.2542 83.5222 17.0035 83.5938C16.7647 83.6535 16.6155 83.6893 16.5558 83.7013C16.0782 83.8326 15.6305 83.9341 15.2127 84.0057C14.8067 84.0893 14.3053 84.1311 13.7084 84.1311Z" fill="#292D3C"/>
<path d="M19.5143 82.8775L20.6962 82.7342V75.6783L19.5501 75.356V74.1203L22.3259 73.7442H22.3796L22.8273 74.1024V74.4964L22.7736 75.947H22.8273C22.9109 75.7082 23.1079 75.4157 23.4183 75.0695C23.7287 74.7113 24.1167 74.4009 24.5824 74.1382C25.0599 73.8636 25.5733 73.7263 26.1225 73.7263C26.3851 73.7263 26.612 73.7621 26.803 73.8338V76.52C26.4448 76.2693 26.009 76.144 25.4957 76.144C24.6241 76.144 23.866 76.3768 23.2213 76.8424V82.7163L25.2987 82.8775V83.9341H19.5143V82.8775Z" fill="#292D3C"/>
<path d="M27.7468 81.1404C27.7468 80.0539 28.29 79.2361 29.3765 78.6869C30.4748 78.1377 31.8896 77.8572 33.6207 77.8452V77.4334C33.6207 76.9439 33.567 76.5618 33.4596 76.2872C33.364 76.0126 33.179 75.8097 32.9044 75.6783C32.6417 75.5351 32.2537 75.4634 31.7404 75.4634C31.1554 75.4634 30.63 75.541 30.1644 75.6962C29.6988 75.8395 29.2153 76.0305 28.7139 76.2693L28.1587 75.1232C28.3378 74.968 28.6363 74.7829 29.0541 74.568C29.4839 74.3531 29.9913 74.1681 30.5763 74.0129C31.1613 73.8457 31.7642 73.7621 32.3851 73.7621C33.3044 73.7621 34.0207 73.8815 34.5341 74.1203C35.0594 74.3591 35.4354 74.7411 35.6623 75.2664C35.8891 75.7918 36.0025 76.4961 36.0025 77.3796V82.8596H36.9696V83.8624C36.7308 83.9221 36.3906 83.9818 35.9488 84.0415C35.5071 84.1012 35.1191 84.1311 34.7848 84.1311C34.3788 84.1311 34.1043 84.0714 33.961 83.952C33.8297 83.8326 33.764 83.5878 33.764 83.2177V82.7342C33.4417 83.0924 33.0238 83.4147 32.5104 83.7013C31.997 83.9878 31.418 84.1311 30.7733 84.1311C30.2241 84.1311 29.7167 84.0176 29.2511 83.7908C28.7974 83.552 28.4333 83.2118 28.1587 82.77C27.8841 82.3163 27.7468 81.7731 27.7468 81.1404ZM31.9194 82.6447C32.1702 82.6447 32.4567 82.573 32.779 82.4298C33.1014 82.2746 33.382 82.0895 33.6207 81.8746V78.9376C32.5462 78.9376 31.7404 79.1227 31.2031 79.4928C30.6778 79.851 30.4151 80.3166 30.4151 80.8897C30.4151 81.4627 30.5465 81.8985 30.8091 82.197C31.0837 82.4954 31.4538 82.6447 31.9194 82.6447Z" fill="#292D3C"/>
<path d="M39.3228 75.3739H37.8186V74.371L39.3228 74.0129V73.2249C39.3228 72.4489 39.5258 71.7385 39.9317 71.0938C40.3496 70.4491 40.9048 69.9417 41.5972 69.5716C42.2897 69.1896 43.0239 68.9985 43.7999 68.9985C44.2058 68.9985 44.5879 69.0582 44.9461 69.1776V71.4699C44.8267 71.3505 44.5879 71.2311 44.2297 71.1117C43.8835 70.9923 43.5194 70.9326 43.1373 70.9326C42.6717 70.9326 42.3374 71.052 42.1345 71.2908C41.9434 71.5176 41.8479 71.9116 41.8479 72.4727V73.995H44.1223V75.3739H41.8479V82.7163L43.7283 82.8596V83.9341H37.9081V82.8596L39.3228 82.6984V75.3739Z" fill="#292D3C"/>
<path d="M48.406 84.0952C47.6538 84.0952 47.0987 83.9221 46.7405 83.5759C46.3824 83.2297 46.2033 82.6805 46.2033 81.9283V75.356H45.0392V74.4248C45.1347 74.3889 45.3079 74.3292 45.5586 74.2457C45.8093 74.1502 46.0003 74.0726 46.1316 74.0129C46.3346 73.8577 46.5077 73.589 46.651 73.207C46.7584 72.9563 46.9554 72.3355 47.242 71.3445H48.6746L48.7463 73.977H51.4862V75.356H48.7642V80.3882C48.7642 81.0568 48.7821 81.5284 48.8179 81.803C48.8537 82.0776 48.9313 82.2567 49.0507 82.3402C49.1701 82.4119 49.379 82.4477 49.6775 82.4477C49.976 82.4477 50.2864 82.4178 50.6087 82.3581C50.9311 82.2865 51.1997 82.2029 51.4146 82.1074L51.7549 83.1103C51.4206 83.361 50.9311 83.5878 50.2864 83.7908C49.6417 83.9938 49.0149 84.0952 48.406 84.0952Z" fill="#292D3C"/>
<path d="M56.1515 69.6432L59.4287 69.2493H59.4645L59.966 69.5895V74.8725C60.2883 74.5501 60.6823 74.2815 61.1479 74.0666C61.6255 73.8397 62.1388 73.7263 62.688 73.7263C63.8341 73.7263 64.7654 74.1323 65.4817 74.9441C66.21 75.744 66.5741 76.9737 66.5741 78.6332C66.5741 79.66 66.3592 80.5912 65.9294 81.4269C65.4996 82.2626 64.8788 82.9252 64.067 83.4147C63.2671 83.8923 62.3358 84.1311 61.2733 84.1311C60.3301 84.1311 59.5123 84.0535 58.8198 83.8983C58.1274 83.7311 57.6856 83.5819 57.4946 83.4505V70.7894L56.1515 70.5745V69.6432ZM61.7389 75.3023C61.3807 75.3023 61.0405 75.3858 60.7181 75.553C60.4077 75.7082 60.157 75.8873 59.966 76.0902V82.6268C60.0376 82.7581 60.2047 82.8655 60.4674 82.9491C60.73 83.0327 61.0285 83.0745 61.3628 83.0745C62.1269 83.0745 62.7358 82.7223 63.1894 82.0179C63.6551 81.3015 63.8879 80.245 63.8879 78.8481C63.8879 77.6423 63.6909 76.7528 63.2969 76.1798C62.9029 75.5948 62.3836 75.3023 61.7389 75.3023Z" fill="#292D3C"/>
<path d="M68.0276 82.8775L69.2096 82.7342V75.6783L68.0634 75.356V74.1203L70.8392 73.7442H70.893L71.3407 74.1024V74.4964L71.2869 75.947H71.3407C71.4242 75.7082 71.6212 75.4157 71.9316 75.0695C72.2421 74.7113 72.6301 74.4009 73.0957 74.1382C73.5732 73.8636 74.0866 73.7263 74.6358 73.7263C74.8985 73.7263 75.1253 73.7621 75.3163 73.8338V76.52C74.9581 76.2693 74.5224 76.144 74.009 76.144C73.1375 76.144 72.3793 76.3768 71.7346 76.8424V82.7163L73.812 82.8775V83.9341H68.0276V82.8775Z" fill="#292D3C"/>
<path d="M80.97 84.1311C79.3941 84.1311 78.2181 83.6714 77.4421 82.7521C76.678 81.8209 76.296 80.5554 76.296 78.9556C76.296 77.8811 76.4929 76.9498 76.8869 76.1619C77.2928 75.3739 77.8599 74.771 78.5882 74.3531C79.3165 73.9353 80.1582 73.7263 81.1133 73.7263C82.3072 73.7263 83.2265 74.0427 83.8712 74.6755C84.5159 75.2963 84.8502 76.1857 84.874 77.3438C84.874 78.1318 84.8263 78.7168 84.7308 79.0988H78.9106C78.9583 80.1853 79.215 81.0329 79.6806 81.6418C80.1462 82.2387 80.8088 82.5372 81.6684 82.5372C82.1341 82.5372 82.6116 82.4596 83.1011 82.3044C83.6025 82.1492 83.9965 81.9642 84.2831 81.7493L84.7308 82.7342C84.4084 83.0804 83.8831 83.4028 83.1548 83.7013C82.4385 83.9878 81.7102 84.1311 80.97 84.1311ZM82.3669 78.0243C82.3907 77.69 82.4027 77.4334 82.4027 77.2543C82.4027 75.6664 81.8714 74.8725 80.8088 74.8725C80.2238 74.8725 79.7702 75.1053 79.4478 75.5709C79.1255 76.0365 78.9464 76.8543 78.9106 78.0243H82.3669Z" fill="#292D3C"/>
<path d="M85.2466 73.995H89.867V75.0157L88.6134 75.2306L89.9386 79.9942L90.3684 81.9462L90.7624 79.9763L92.3741 73.995H94.541L96.3139 79.9763L96.7438 81.9462L97.1735 79.9942L98.4271 75.2485L97.1198 75.0157V73.995H100.952V75.0157L100.039 75.2127L97.3168 84.0773H95.2574L93.4486 78.275L93.0367 76.144L92.7144 78.275L91.0489 84.0773H88.9715L86.1062 75.2127L85.2466 75.0157V73.995Z" fill="#292D3C"/>
<path d="M105.856 84.1311C104.28 84.1311 103.104 83.6714 102.328 82.7521C101.564 81.8209 101.182 80.5554 101.182 78.9556C101.182 77.8811 101.379 76.9498 101.773 76.1619C102.179 75.3739 102.746 74.771 103.474 74.3531C104.203 73.9353 105.044 73.7263 106 73.7263C107.193 73.7263 108.113 74.0427 108.757 74.6755C109.402 75.2963 109.736 76.1857 109.76 77.3438C109.76 78.1318 109.713 78.7168 109.617 79.0988H103.797C103.845 80.1853 104.101 81.0329 104.567 81.6418C105.032 82.2387 105.695 82.5372 106.555 82.5372C107.02 82.5372 107.498 82.4596 107.987 82.3044C108.489 82.1492 108.883 81.9642 109.169 81.7493L109.617 82.7342C109.295 83.0804 108.769 83.4028 108.041 83.7013C107.325 83.9878 106.596 84.1311 105.856 84.1311ZM107.253 78.0243C107.277 77.69 107.289 77.4334 107.289 77.2543C107.289 75.6664 106.758 74.8725 105.695 74.8725C105.11 74.8725 104.656 75.1053 104.334 75.5709C104.012 76.0365 103.833 76.8543 103.797 78.0243H107.253Z" fill="#292D3C"/>
<path d="M111.189 82.8775L112.371 82.7342V75.6783L111.225 75.356V74.1203L114.001 73.7442H114.055L114.502 74.1024V74.4964L114.449 75.947H114.502C114.586 75.7082 114.783 75.4157 115.093 75.0695C115.404 74.7113 115.792 74.4009 116.258 74.1382C116.735 73.8636 117.248 73.7263 117.798 73.7263C118.06 73.7263 118.287 73.7621 118.478 73.8338V76.52C118.12 76.2693 117.684 76.144 117.171 76.144C116.299 76.144 115.541 76.3768 114.896 76.8424V82.7163L116.974 82.8775V83.9341H111.189V82.8775Z" fill="#292D3C"/>
<path d="M121.213 88.3932C120.998 88.3932 120.765 88.3753 120.514 88.3395C120.276 88.3037 120.102 88.2619 119.995 88.2142V86.298C120.079 86.3457 120.246 86.3935 120.496 86.4412C120.747 86.489 120.974 86.5129 121.177 86.5129C121.774 86.5129 122.263 86.3159 122.645 85.9219C123.039 85.5279 123.404 84.8653 123.738 83.9341H122.771L119.404 75.2485L118.598 75.0157V73.977H123.523V75.0157L122.216 75.2306L123.81 80.1912L124.454 82.3044L125.009 80.1912L126.478 75.2306L125.35 75.0157V73.977H129.236V75.0157L128.358 75.2306C127.702 77.2364 127.051 79.1705 126.406 81.0329C125.762 82.8954 125.385 83.94 125.278 84.1669C124.896 85.1697 124.532 85.9696 124.186 86.5666C123.839 87.1635 123.427 87.6172 122.95 87.9276C122.472 88.238 121.893 88.3932 121.213 88.3932Z" fill="#292D3C"/>
<path d="M135.168 84.525C135.168 85.0384 135.09 85.4264 134.935 85.6891C134.792 85.9637 134.577 86.1487 134.29 86.2442C134.004 86.3398 133.622 86.3875 133.144 86.3875C132.308 86.3875 131.437 86.2681 130.529 86.0293V85.116H132.965V70.7894H130.529V69.876C131.532 69.6492 132.404 69.5358 133.144 69.5358C133.622 69.5358 134.004 69.5835 134.29 69.6791C134.577 69.7746 134.792 69.9596 134.935 70.2342C135.09 70.4969 135.168 70.8849 135.168 71.3982V84.525Z" fill="#292D3C"/>
</g>
</g>
<defs>
<clipPath id="clip0">
<rect width="88.0709" height="66.9339" fill="white" transform="translate(24)"/>
</clipPath>
</defs>
</svg>
