<svg width="45" height="45" viewBox="0 0 45 45" fill="none" xmlns="http://www.w3.org/2000/svg">
<g clip-path="url(#clip0)">
<path d="M38.0788 32.4593C38.0788 40.8337 31.2962 40.8337 22.8526 40.8337C14.409 40.8337 7.62646 40.8337 7.62646 32.4593C7.62646 24.0849 14.4782 10.3813 22.8526 10.3813C31.227 10.3813 38.0788 24.0157 38.0788 32.4593Z" fill="#DBB471"/>
<path opacity="0.5" d="M38.0772 32.459C38.0772 29.6214 37.3159 26.1609 35.9317 22.8389C36.2085 24.9844 35.6548 28.7909 29.0799 30.2443C19.7366 32.2514 24.5813 34.8814 20.9132 35.2274C17.7987 35.5043 9.49354 34.2585 7.8325 29.5522C7.69408 30.5904 7.55566 31.5593 7.55566 32.5282C7.62487 40.8334 14.4766 40.8334 22.851 40.8334C31.2254 40.8334 38.0772 40.8334 38.0772 32.459Z" fill="#89664C"/>
<path d="M26.9343 28.4449C26.6575 27.0607 25.4809 26.6455 24.2351 26.5763V24.6384C24.5812 24.7768 24.9964 24.9844 25.2733 25.1921C25.8269 25.5381 26.3806 24.6384 25.8269 24.2923C25.3425 24.0155 24.7888 23.7387 24.2351 23.531V21.2471C24.2351 20.555 23.197 20.555 23.197 21.2471V23.2542C22.6433 23.185 22.0896 23.185 21.5359 23.2542C21.4667 22.7697 21.3283 22.2852 21.1899 21.8008C21.0515 21.1087 20.0133 21.3855 20.2209 22.0776C20.3594 22.5621 20.4286 23.0466 20.567 23.531C20.4978 23.531 20.4978 23.531 20.4286 23.6002C19.0444 24.1539 18.1446 25.5381 19.1828 26.8531C19.6673 27.476 20.2901 27.6836 20.9822 27.822C21.0515 28.7218 21.0515 29.6215 21.0515 30.5212C20.567 30.2444 20.1517 29.8291 19.8057 29.4831C19.3212 28.9986 18.6291 29.7599 19.0444 30.2444C19.6673 30.9365 20.3594 31.4209 21.0515 31.767C21.0515 32.5283 21.1207 33.2896 21.1899 34.0509C21.2591 34.743 22.2972 34.743 22.228 34.0509C22.1588 33.3588 22.0896 32.7359 22.0896 32.0438C22.5049 32.113 22.9201 32.113 23.3354 32.113C23.4046 32.8051 23.4738 33.4972 23.543 34.2585C23.6122 34.9506 24.6504 34.9506 24.5812 34.2585C24.512 33.4972 24.4427 32.7359 24.3735 31.9054C25.8961 31.3517 27.2803 30.1752 26.9343 28.4449ZM23.197 24.2923V26.5763C22.8509 26.5763 22.5741 26.6455 22.2972 26.6455H21.9512L21.7436 24.1539C22.228 24.1539 22.7125 24.2231 23.197 24.2923ZM20.7054 26.507C20.4286 26.4378 20.1517 26.2302 19.8749 26.0226C19.252 25.3997 20.1517 24.846 20.7054 24.5692C20.7746 25.2613 20.8438 25.8842 20.913 26.5763C20.8438 26.5763 20.7746 26.5763 20.7054 26.507ZM22.9893 30.9365C22.6433 31.0057 22.3664 30.9365 22.0896 30.8673C22.0204 29.8291 22.0204 28.791 22.0204 27.6836C22.4357 27.6836 22.8509 27.6144 23.2662 27.6144C23.2662 28.7218 23.3354 29.7599 23.3354 30.8673C23.197 30.9365 23.1278 30.9365 22.9893 30.9365ZM25.2733 30.1752C24.9964 30.3828 24.6504 30.5212 24.3735 30.6596C24.3043 29.6215 24.3043 28.6525 24.3043 27.6144H24.6504C25.9654 27.8912 26.3114 29.3446 25.2733 30.1752Z" fill="#89664C"/>
<path d="M24.2368 38.0648H22.645V40.8332L29.0815 44.2937L43.6156 39.7951V37.3727L38.2864 34.2583L24.2368 38.0648Z" fill="#699635"/>
<path d="M22.8525 36.473C22.8525 36.473 24.5136 39.1722 29.2198 41.5253C29.2198 41.5253 36.5561 41.1793 43.6155 36.473C43.6155 36.473 39.5321 34.4659 38.3555 31.8359C38.3555 31.8359 35.5871 35.7117 22.8525 36.473Z" fill="#83BF4F"/>
<path d="M19.7389 37.996L21.2615 37.9267L21.4691 40.4875L15.4479 44.2941L0.98302 41.1796L0.775391 38.8957L5.68929 35.5044L19.7389 37.996Z" fill="#699635"/>
<path d="M20.9148 36.4039C20.9148 36.4039 19.4614 39.103 15.1012 41.6638C15.1012 41.6638 7.9726 41.8714 0.705566 38.0649C0.705566 38.0649 4.58132 35.8502 5.48104 33.2202C5.48104 33.2202 8.52628 36.6807 20.9148 36.4039Z" fill="#83BF4F"/>
<path d="M17.4547 37.165C17.4547 37.165 17.2471 37.7187 18.216 37.7879L15.6553 39.9334C15.6553 39.9334 14.1327 39.795 13.7866 40.8331C13.7866 40.8331 7.55773 40.141 3.54357 38.3416C3.54357 38.3416 4.37408 37.7187 3.33594 37.3034C3.33594 37.3034 4.5125 36.4729 4.78934 35.7116C4.78934 35.7116 5.8967 35.85 6.24275 35.0195C6.38117 34.9503 10.5338 37.4418 17.4547 37.165V37.165Z" stroke="#699635" stroke-width="1.3796" stroke-miterlimit="10"/>
<path d="M6.79448 38.1344C7.52073 38.1344 8.10946 37.7316 8.10946 37.2347C8.10946 36.7378 7.52073 36.335 6.79448 36.335C6.06823 36.335 5.47949 36.7378 5.47949 37.2347C5.47949 37.7316 6.06823 38.1344 6.79448 38.1344Z" fill="#699635"/>
<path d="M13.8556 36.1278C13.8556 36.1278 12.2638 38.2041 8.80333 41.0417L9.01096 42.9103L6.58861 42.3567L6.4502 40.3496C6.4502 40.3496 9.97989 37.0967 10.7412 35.5049C10.672 35.5049 11.9178 35.9201 13.8556 36.1278Z" fill="#F9F3D9"/>
<path d="M29.8438 35.6427C29.8438 35.6427 30.4666 37.3037 35.1729 40.3489V42.356L37.8721 41.5255V39.4492C37.8721 39.4492 34.6192 37.1653 32.6814 34.8813L29.8438 35.6427Z" fill="#F9F3D9"/>
<path d="M25.8979 33.4277L24.3752 33.3585L24.2368 36.1961L30.3965 40.141L44.8613 36.1961L44.9306 33.7045L39.8782 30.1748L25.8979 33.4277Z" fill="#699635"/>
<path d="M24.6528 31.6978C24.6528 31.6978 26.1754 34.6046 30.6741 37.2345C30.6741 37.2345 37.8719 37.2345 45.0005 32.8051C45.0005 32.8051 41.0556 30.5212 40.0866 27.6836C40.0866 27.6836 37.1106 31.5593 24.6528 31.6978Z" fill="#83BF4F"/>
<path d="M27.7667 32.4591C27.7667 32.4591 28.1127 33.0128 27.0054 33.2204L29.9122 35.5043C29.9122 35.5043 31.5732 35.089 32.1269 36.058C32.1269 36.058 39.0479 34.8122 42.2315 33.1512C42.2315 33.1512 41.1934 32.6667 42.2315 32.0438C42.2315 32.0438 40.9857 31.0057 40.5013 30.3136C40.5013 30.3136 39.3247 30.6596 38.7018 29.8291C38.7018 29.8983 36.2103 32.113 27.7667 32.4591V32.4591Z" stroke="#699635" stroke-width="1.3796" stroke-miterlimit="10"/>
<path d="M33.096 34.1889C32.8192 34.535 31.9194 34.6734 31.1581 34.4658C30.3968 34.2581 30.0508 33.7737 30.3276 33.4276C30.6044 33.0816 31.5042 32.9431 32.2655 33.1508C33.0268 33.3584 33.3728 33.7737 33.096 34.1889Z" fill="#699635"/>
<path d="M31.7124 31.1446C31.7124 31.1446 33.3734 33.3593 36.9031 36.3353L36.8339 38.4116L39.2563 37.7195L39.3255 35.5048C39.3255 35.5048 35.7266 32.0443 34.8268 30.3833C34.8961 30.3833 33.7195 30.8678 31.7124 31.1446Z" fill="#F9F3D9"/>
<path d="M32.5418 1.38322C32.5418 5.60502 27.0743 12.4568 22.8525 12.4568C18.6307 12.4568 13.1631 6.29712 13.1631 2.07532C13.1631 -2.14648 13.786 2.07532 18.0078 2.07532C18.6307 2.07532 21.5375 -0.000976562 22.8525 -0.000976562C23.7522 -0.000976562 26.3129 2.07532 27.6971 2.07532C31.3653 2.07532 32.5418 -1.80043 32.5418 1.38322Z" fill="#DBB471"/>
<path d="M21.6077 9.20508C21.1925 9.48192 19.1854 9.27429 18.5625 9.75876C17.732 10.3816 18.9086 11.835 18.078 12.7348C16.417 14.3958 15.102 16.2645 15.5173 17.3026C16.2094 19.1021 17.5244 13.9806 18.7009 15.9184C19.8775 17.8563 19.6699 14.6034 21.4693 16.2645C23.2688 17.9255 21.7462 13.2885 23.4764 15.2955C25.2066 17.3026 25.2759 19.5865 26.5216 19.5865C27.975 19.5865 24.999 14.119 26.9369 15.434C28.8748 16.7489 31.0203 16.2645 29.0824 14.2574C28.4595 13.6345 27.629 12.5271 26.66 11.5582C26.314 11.2122 26.5908 9.41271 26.2448 9.13587C25.8295 8.78982 24.7914 9.89717 24.3761 9.68955C23.5456 9.27429 23.8224 10.0356 22.5767 10.2432C21.7462 10.5201 22.4383 8.6514 21.6077 9.20508Z" fill="#89664C"/>
<path d="M13.6476 13.2879C16.3468 10.7272 21.2607 12.1806 24.1675 13.4264C27.0051 14.6721 28.7354 10.7272 26.9359 8.7201C25.8978 7.54353 24.2367 8.92773 23.6138 9.75824C22.9217 10.5888 22.3681 11.4885 21.6067 12.319C20.4994 13.5648 17.8002 12.5266 18.6307 10.7964C19.5304 8.99694 23.337 11.0732 24.5828 11.4193C27.0051 12.1114 29.5659 12.3882 31.9882 11.4885C32.8187 11.2116 32.4727 9.82745 31.6422 10.1735C28.943 11.1424 26.2438 10.5196 23.683 9.68903C22.3681 9.27377 20.2918 8.16642 18.9076 8.78931C14.9626 10.658 18.6307 15.9871 21.9528 13.9108C22.7141 13.4264 23.1986 12.6651 23.7522 11.973C24.0983 11.5577 25.8285 8.92773 26.2438 10.2427C26.4514 10.9348 26.2438 12.1806 25.4825 12.3882C24.998 12.5958 24.0291 11.9037 23.5446 11.7653C22.6449 11.4193 21.7452 11.1424 20.7762 10.9348C18.2155 10.3811 14.755 10.5196 12.7479 12.3882C12.0558 12.9419 13.0247 13.9108 13.6476 13.2879Z" fill="#E8E8E8"/>
<path d="M31.7116 0.345072C31.0195 0.898751 29.7737 2.07532 27.6974 2.07532C26.3132 2.07532 23.7525 -0.000976562 22.8527 -0.000976562C21.5378 -0.000976562 18.6309 2.07532 18.0081 2.07532C15.7241 2.07532 14.4784 0.898751 13.8555 0.414282C13.8555 0.414282 14.6168 3.52872 16.9699 5.12055C18.7002 6.2279 18.4925 4.91292 19.3923 3.66714C20.292 2.42137 20.9149 1.79848 22.5067 4.91292C23.3372 6.64316 24.929 0.206653 26.1748 2.28295C28.4587 6.08948 29.2893 4.01319 31.7116 0.345072Z" fill="#89664C"/>
<path d="M36.973 36.2656L36.9038 38.3419L39.3261 37.6498L39.3954 35.4351C39.3954 35.5043 37.942 36.0579 36.973 36.2656Z" fill="#DBB471"/>
<path d="M35.1738 40.4175V42.4246L37.873 41.5941V39.5178C37.8038 39.4486 37.1117 39.8639 35.1738 40.4175Z" fill="#DBB471"/>
<path d="M8.80535 40.9715L9.01297 42.9094L6.59063 42.3557L6.45221 40.3486C6.383 40.3486 7.35194 40.6947 8.80535 40.9715Z" fill="#DBB471"/>
</g>
<defs>
<clipPath id="clip0">
<rect width="44.2943" height="44.2943" fill="white" transform="translate(0.705566)"/>
</clipPath>
</defs>
</svg>
