<svg width="14" height="17" viewBox="0 0 14 17" fill="none" xmlns="http://www.w3.org/2000/svg">
<path d="M13.2668 0.0178741C13.1247 0.0527654 13.016 0.160917 12.9157 0.267517L12.8923 0.292376C12.1944 1.03386 11.0507 1.13257 10.2361 0.52163L9.68333 0.107133C9.5826 0.0376569 9.4597 5.68044e-05 9.33333 5.68044e-05C9.20697 5.68044e-05 9.08407 0.0376569 8.98333 0.107133L8.19992 0.694632C7.48884 1.22788 6.51116 1.22788 5.80008 0.694632L5.01667 0.107133C4.91593 0.0376569 4.79303 5.68044e-05 4.66667 5.68044e-05C4.5403 5.68044e-05 4.4174 0.0376569 4.31667 0.107133L3.76395 0.521631C2.94928 1.13257 1.80564 1.03386 1.1077 0.292376L1.0843 0.267517C0.983958 0.160916 0.875338 0.0527654 0.733161 0.0178741C0.382056 -0.0682895 0 0.165797 0 0.532088V16.4679C0 16.8342 0.382056 17.0683 0.733161 16.9821C0.875339 16.9472 0.983958 16.8391 1.0843 16.7325L1.1077 16.7076C1.80564 15.9661 2.94928 15.8674 3.76394 16.4784L4.31667 16.8929C4.4174 16.9623 4.5403 16.9999 4.66667 16.9999C4.79303 16.9999 4.91593 16.9623 5.01667 16.8929L5.80008 16.3054C6.51116 15.7721 7.48884 15.7721 8.19992 16.3054L8.98333 16.8929C9.08407 16.9623 9.20697 16.9999 9.33333 16.9999C9.4597 16.9999 9.5826 16.9623 9.68333 16.8929L10.2361 16.4784C11.0507 15.8674 12.1944 15.9661 12.8923 16.7076L12.9188 16.7357C13.0171 16.8402 13.1232 16.9462 13.2623 16.9813C13.613 17.0697 14 16.8353 14 16.4679V0.532088C14 0.165797 13.6179 -0.0682896 13.2668 0.0178741ZM11.6667 11.9528C11.6667 12.0988 11.5354 12.2184 11.375 12.2184H2.625C2.46458 12.2184 2.33333 12.0988 2.33333 11.9528V11.4216C2.33333 11.2755 2.46458 11.156 2.625 11.156H11.375C11.5354 11.156 11.6667 11.2755 11.6667 11.4216V11.9528ZM11.6667 8.7656C11.6667 8.91168 11.5354 9.03119 11.375 9.03119H2.625C2.46458 9.03119 2.33333 8.91168 2.33333 8.7656V8.2344C2.33333 8.08832 2.46458 7.96881 2.625 7.96881H11.375C11.5354 7.96881 11.6667 8.08832 11.6667 8.2344V8.7656ZM11.6667 5.57843C11.6667 5.72451 11.5354 5.84403 11.375 5.84403H2.625C2.46458 5.84403 2.33333 5.72451 2.33333 5.57843V5.04724C2.33333 4.90116 2.46458 4.78164 2.625 4.78164H11.375C11.5354 4.78164 11.6667 4.90116 11.6667 5.04724V5.57843Z" fill="#292D3C"/>
</svg>
