<svg width="49" height="49" viewBox="0 0 49 49" fill="none" xmlns="http://www.w3.org/2000/svg">
<path d="M24.5 0C10.9657 0 0 10.9657 0 24.5C0 38.0343 10.9657 49 24.5 49C38.0343 49 49 38.0343 49 24.5C49 10.9657 38.0343 0 24.5 0ZM30.1409 34.5865L21.4276 28.254C21.1214 28.0268 20.9435 27.6712 20.9435 27.2958V10.6694C20.9435 10.0173 21.477 9.48387 22.129 9.48387H26.871C27.523 9.48387 28.0565 10.0173 28.0565 10.6694V24.2728L34.3296 28.8369C34.8631 29.2222 34.9718 29.9631 34.5865 30.4966L31.8006 34.3296C31.4153 34.8532 30.6744 34.9718 30.1409 34.5865Z" fill="#475073"/>
</svg>
