<svg width="15" height="14" viewBox="0 0 15 14" fill="none" xmlns="http://www.w3.org/2000/svg">
<path fill-rule="evenodd" clip-rule="evenodd" d="M14.773 2.48485L13.993 2.30085L11.885 4.39685L10.691 3.18085L12.747 1.02385L12.567 0.231848C12.1326 0.0864985 11.6781 0.00957988 11.22 0.0038483C10.7203 -0.00383647 10.2243 0.0914766 9.76303 0.283848C9.31763 0.485459 8.91503 0.770607 8.57703 1.12385C8.20078 1.48026 7.9028 1.91106 7.70203 2.38885C7.31548 3.33973 7.31548 4.40396 7.70203 5.35485C5.61727 7.40584 3.55942 9.48402 1.52903 11.5888C1.31903 11.8638 1.21903 12.2068 1.24503 12.5518C1.26552 12.9229 1.43239 13.2707 1.70903 13.5188C1.83303 13.6538 1.98103 13.7658 2.14603 13.8468C2.31603 13.9218 2.49903 13.9648 2.68403 13.9738C3.00003 13.9678 3.30303 13.8478 3.53803 13.6368C5.08603 12.1798 8.05203 9.18685 9.73703 7.43285C10.194 7.62685 10.685 7.72685 11.181 7.72585C11.6803 7.72545 12.1744 7.62499 12.6342 7.43039C13.094 7.23579 13.5102 6.951 13.858 6.59285C14.5726 5.86411 14.9717 4.88345 14.969 3.86285C14.9806 3.39582 14.9143 2.93013 14.773 2.48485V2.48485ZM2.93303 12.9278C2.89454 12.962 2.84814 12.9861 2.79803 12.9978C2.74873 13.0064 2.69833 13.0064 2.64903 12.9978C2.59734 12.99 2.5481 12.9705 2.50503 12.9408C2.4588 12.9138 2.41972 12.8761 2.39103 12.8308C2.25103 12.6878 2.12003 12.4158 2.25103 12.2628C3.62103 10.8058 6.44203 7.95785 8.20603 6.21685C8.30603 6.34885 8.41603 6.47485 8.53403 6.59285C8.65203 6.71585 8.77903 6.82985 8.91403 6.93385C7.20803 8.68385 4.42603 11.4978 2.93403 12.9278H2.93303ZM14.051 3.86285C14.053 4.62785 13.755 5.36285 13.219 5.91085C12.6842 6.43554 11.9648 6.72947 11.2155 6.72947C10.4663 6.72947 9.7469 6.43554 9.21203 5.91085C8.82001 5.50174 8.55222 4.98974 8.43981 4.43439C8.32739 3.87905 8.37498 3.3032 8.57703 2.77385C8.71152 2.41358 8.92013 2.08555 9.18937 1.81098C9.4586 1.5364 9.78247 1.32139 10.14 1.17985C10.4795 1.03776 10.844 0.964996 11.212 0.965848H11.466L9.64903 2.83885V3.53485L11.544 5.42085H12.204L14.051 3.60485V3.86285V3.86285ZM3.24003 5.68785H4.77103L5.47603 6.40485L6.15403 5.73085L5.48903 5.05285V5.00985L5.54603 3.36085L5.32603 2.92385L2.46603 1.04185L1.87503 1.10785L1.04403 1.95685L0.978027 2.55585L2.81603 5.47385L3.24003 5.68885V5.68785ZM2.29503 2.05585L4.60903 3.57985L4.57003 4.70285H3.49403L2.00203 2.34085L2.29503 2.05585V2.05585ZM9.40003 9.01585L10.074 8.34285L13.18 11.5278C13.4416 11.8028 13.5876 12.1678 13.5876 12.5473C13.5876 12.9269 13.4416 13.2919 13.18 13.5668C12.9833 13.7688 12.7303 13.9069 12.4541 13.963C12.1778 14.0192 11.891 13.9909 11.631 13.8818C11.4651 13.8083 11.3163 13.701 11.194 13.5668L8.05203 10.3638L8.73103 9.68585L11.863 12.8798C11.9051 12.9263 11.9575 12.9623 12.016 12.9848C12.1311 13.0316 12.2599 13.0316 12.375 12.9848C12.4335 12.9622 12.4859 12.9263 12.528 12.8798C12.5718 12.8365 12.6059 12.7843 12.628 12.7268C12.651 12.6682 12.6632 12.6058 12.664 12.5428C12.663 12.48 12.6512 12.4177 12.629 12.3588C12.6069 12.3014 12.5728 12.2492 12.529 12.2058L9.40003 9.01585Z" fill="black"/>
</svg>
