<svg width="46" height="46" viewBox="0 0 46 46" fill="none" xmlns="http://www.w3.org/2000/svg">
<path d="M39.1001 2.2998H34.5001C33.8901 2.2998 33.3051 2.54213 32.8738 2.97346C32.4424 3.40479 32.2001 3.98981 32.2001 4.5998V43.6814H41.4001V4.5998C41.4001 3.98981 41.1578 3.40479 40.7264 2.97346C40.2951 2.54213 39.7101 2.2998 39.1001 2.2998ZM25.3001 16.0998H20.7001C20.0901 16.0998 19.5051 16.3421 19.0738 16.7735C18.6424 17.2048 18.4001 17.7898 18.4001 18.3998V43.6814H27.6001V18.3998C27.6001 17.7898 27.3578 17.2048 26.9264 16.7735C26.4951 16.3421 25.9101 16.0998 25.3001 16.0998ZM11.5001 29.8998H6.9001C6.2901 29.8998 5.70509 30.1421 5.27375 30.5735C4.84242 31.0048 4.6001 31.5898 4.6001 32.1998V43.6814H13.8001V32.1998C13.8001 31.5898 13.5578 31.0048 13.1264 30.5735C12.6951 30.1421 12.1101 29.8998 11.5001 29.8998Z" fill="#475073"/>
</svg>
