<svg width="49" height="67" viewBox="0 0 49 67" fill="none" xmlns="http://www.w3.org/2000/svg">
<path d="M33.8263 33.928C32.7797 34.0699 31.6977 34.0344 30.6511 33.8216C29.4804 33.5733 28.3451 33.1122 27.1567 33.2363C26.0569 33.3427 25.0281 33.928 23.9105 33.9812C22.7575 34.0167 21.6932 33.4669 20.5757 33.1477C20.3097 33.0767 20.0436 33.0058 19.7598 32.9526C20.221 32.119 20.487 31.1613 20.487 30.1503V27.827C21.4449 27.8625 22.4205 27.7738 23.3784 27.5964C24.762 27.3481 26.0746 26.887 27.2986 26.2485C29.2675 27.2772 31.5025 27.7028 33.7021 27.49C33.7021 27.7383 33.7021 27.9866 33.7198 28.2349C33.7198 28.3413 33.7198 28.4477 33.7198 28.5542C33.7198 28.6428 33.7198 28.7138 33.7198 28.8024C33.7198 28.8911 33.7198 28.9975 33.7198 29.104C33.7198 29.4232 33.7376 29.7424 33.7376 30.0617C33.7376 30.2213 33.7376 30.3809 33.7376 30.5583C33.7376 30.9662 33.7553 31.3918 33.7553 31.7998C33.7553 31.9948 33.7553 32.1899 33.7553 32.385C33.7553 32.7043 33.7731 33.0235 33.7731 33.3427C33.7731 33.4846 33.7731 33.6265 33.7731 33.7861C33.8263 33.8039 33.8263 33.8571 33.8263 33.928Z" fill="#FCE8C3"/>
<path d="M9.47131 32.4203V63.5107C8.30059 63.2447 7.7507 62.9432 7.5201 62.6771C7.44915 62.5884 7.44915 62.553 7.46689 62.5175C7.46689 62.4643 7.48463 62.3934 7.48463 62.3224C7.78618 59.6798 8.06999 44.2676 8.24737 32.1365C8.61988 32.1011 8.97464 32.1011 9.34715 32.1011C9.38263 32.2252 9.43584 32.3316 9.47131 32.4203Z" fill="#FCE8C3"/>
<path d="M34.5368 62.6772C33.9869 63.3334 31.6277 64.1138 23.5922 64.2025H22.7763C22.1909 64.2025 21.6055 64.2025 21.0379 64.2025C20.4703 64.2025 19.8849 64.2025 19.2995 64.2025H18.4836C13.8361 64.1493 11.0867 63.8655 9.49023 63.5108V61.5244C13.6765 61.5599 17.8273 62.3048 21.9071 62.9965C22.4924 63.1029 23.0955 63.1916 23.6987 63.2093C24.7807 63.2448 25.8272 63.0319 26.8738 62.8546C29.3927 62.4289 31.9647 62.2516 34.5545 62.1274C34.5545 62.1984 34.5723 62.2693 34.5723 62.3402C34.59 62.4112 34.59 62.4821 34.59 62.5353C34.6077 62.5708 34.6077 62.6063 34.5368 62.6772Z" fill="#FCE8C3"/>
<path d="M15.9289 55.0508C16.5143 57.4096 17.4722 59.8748 17.2416 62.2337C14.6695 61.8435 12.0797 61.542 9.47217 61.5243V32.438C10.3591 34.4598 12.399 35.8787 14.7582 35.8787C15.787 35.8787 16.7449 35.6126 17.5786 35.1338C17.5076 36.8896 17.3125 38.6454 16.9578 40.3658C16.5498 42.2812 15.9467 44.1612 15.6096 46.0766C15.0952 49.0562 15.2194 52.1244 15.9289 55.0508Z" fill="#E5A038"/>
<path d="M34.5531 62.1097C31.9633 62.2338 29.3913 62.4112 26.8724 62.8368C25.8259 63.0142 24.7793 63.227 23.6973 63.1915C23.0942 63.1738 22.4911 63.0851 21.9057 62.9787C20.3624 62.7127 18.8192 62.4466 17.2582 62.2161C17.4888 59.875 16.531 57.4097 15.9456 55.0332C15.2183 52.1068 15.1119 49.0386 15.6263 46.0767C15.9633 44.1436 16.5664 42.2814 16.9744 40.3659C17.3292 38.6278 17.5243 36.8898 17.5953 35.1339C18.5177 34.6196 19.2804 33.857 19.7948 32.917C20.0609 32.9702 20.3447 33.0411 20.6108 33.1121C21.7106 33.4313 22.7926 33.9989 23.9456 33.9457C25.0631 33.9102 26.0742 33.3072 27.1917 33.2008C28.3802 33.0943 29.5154 33.5555 30.6862 33.786C31.7327 33.9989 32.8148 34.0343 33.8613 33.8924C33.8613 34.0343 33.8613 34.1585 33.8613 34.3004C33.8613 34.389 33.8613 34.46 33.8613 34.5487C33.8613 34.7615 33.8613 34.9743 33.8791 35.1871C33.8791 35.4 33.8791 35.6305 33.8968 35.8434C33.8968 36.3222 33.9146 36.7833 33.9146 37.2622C33.9146 37.3331 33.9146 37.4218 33.9146 37.4928C34.0032 42.7957 34.1097 48.276 34.2161 52.763C34.2338 53.2064 34.2338 53.6144 34.2516 54.04C34.2516 54.2883 34.2693 54.5189 34.2693 54.7494C34.3048 55.6539 34.3225 56.523 34.3403 57.3033C34.358 57.7467 34.3757 58.1546 34.3757 58.5626C34.3757 58.8109 34.3935 59.0414 34.3935 59.2542C34.429 60.0346 34.4644 60.7086 34.4822 61.2406C34.4999 61.6131 34.5176 61.8968 34.5531 62.1097Z" fill="#EEB448"/>
<path d="M9.34734 32.1188C8.97484 32.1188 8.62007 32.1188 8.24756 32.1543C8.28304 30.1325 8.30077 28.1815 8.33625 26.4257C8.33625 26.1774 8.33625 25.9469 8.35399 25.7163C8.56685 25.7518 8.77971 25.7873 8.99257 25.805V30.1325C8.99257 30.8241 9.11674 31.4981 9.34734 32.1188Z" fill="#FCE8C3"/>
<path d="M26.5368 30.6112C25.0113 30.8595 23.9825 32.3138 24.2308 33.839C24.4792 35.3643 25.9337 36.393 27.4592 36.1447C28.9847 35.8964 30.0135 34.4421 29.7652 32.9168C29.5168 31.3915 28.0623 30.3451 26.5368 30.6112Z" fill="#FCE8C3"/>
<path d="M35.9204 33.0589C35.885 33.0589 35.8495 33.0589 35.7963 33.0589C35.7963 33.4491 35.814 33.8215 35.814 34.2117C35.814 34.2472 35.814 34.2826 35.814 34.3004C35.8495 34.3004 35.885 34.3004 35.9027 34.3004C38.7408 34.3004 41.2419 35.8079 41.2419 37.546V49.7303C41.2419 51.3974 38.9005 52.8872 36.1688 52.9759C36.1865 53.4015 36.1865 53.8095 36.2042 54.2174C39.681 54.111 42.4836 52.1423 42.4836 49.7303V37.546C42.5014 35.0807 39.5391 33.0589 35.9204 33.0589ZM44.3994 31.374C42.1111 29.6005 39.1133 28.625 35.9204 28.625C35.8672 28.625 35.7963 28.625 35.743 28.625C35.069 28.625 34.4127 28.6782 33.7563 28.7846C33.7563 28.8733 33.7563 28.9797 33.7563 29.0861C33.7563 29.4054 33.7741 29.7246 33.7741 30.0438C34.4127 29.9374 35.0867 29.8842 35.7608 29.8842C35.814 29.8842 35.8672 29.8842 35.9204 29.8842C41.9337 29.8842 46.8295 33.6974 46.8295 38.3973V48.9499C46.8295 53.5434 42.1466 57.2856 36.2929 57.4452C36.1688 57.4452 36.0446 57.4452 35.9027 57.4452C35.3528 57.4452 34.8206 57.4098 34.3062 57.3566C34.324 57.7999 34.3417 58.2079 34.3417 58.6158C34.8561 58.669 35.3705 58.6867 35.9027 58.6867C36.0446 58.6867 36.1865 58.6867 36.3284 58.6867C39.3617 58.598 42.1998 57.6403 44.3816 55.9377C46.7586 54.0932 48.0535 51.6102 48.0535 48.9499V38.3973C48.0712 35.7192 46.7763 33.2362 44.3994 31.374ZM36.1865 52.9759C36.2042 53.4015 36.2042 53.8095 36.222 54.2174C39.6987 54.111 42.5014 52.1423 42.5014 49.7303V37.546C42.5014 35.0807 39.5391 33.0589 35.9204 33.0589C35.885 33.0589 35.8495 33.0589 35.7963 33.0589C35.7963 33.4491 35.814 33.8215 35.814 34.2117C35.814 34.2472 35.814 34.2826 35.814 34.3004C35.8495 34.3004 35.885 34.3004 35.9027 34.3004C38.7408 34.3004 41.2419 35.8079 41.2419 37.546V49.7303C41.2597 51.4152 38.9182 52.8872 36.1865 52.9759ZM33.845 34.5841C33.845 34.797 33.845 35.0098 33.845 35.2226C33.845 35.4354 33.845 35.666 33.8628 35.8788C33.8628 36.3577 33.8805 36.8188 33.8805 37.2977C33.8805 37.3686 33.8805 37.4573 33.8805 37.5282C33.9692 42.8312 34.0756 48.3114 34.1821 52.7985L33.845 34.5841ZM33.845 34.5841C33.845 34.797 33.845 35.0098 33.845 35.2226C33.845 35.4354 33.845 35.666 33.8628 35.8788C33.8628 36.3577 33.8805 36.8188 33.8805 37.2977C33.8805 37.3686 33.8805 37.4573 33.8805 37.5282C33.9692 42.8312 34.0756 48.3114 34.1821 52.7985L33.845 34.5841ZM33.845 34.5841C33.845 34.797 33.845 35.0098 33.845 35.2226C33.845 35.4354 33.845 35.666 33.8628 35.8788C33.8628 36.3577 33.8805 36.8188 33.8805 37.2977C33.8805 37.3686 33.8805 37.4573 33.8805 37.5282C33.9692 42.8312 34.0756 48.3114 34.1821 52.7985L33.845 34.5841ZM35.9204 33.0589C35.885 33.0589 35.8495 33.0589 35.7963 33.0589C35.1045 33.0589 34.4481 33.1476 33.8096 33.2894L33.8273 34.5664C34.4481 34.4068 35.1045 34.3004 35.7963 34.3004C35.8317 34.3004 35.8672 34.3004 35.8849 34.3004C38.7231 34.3004 41.2242 35.8079 41.2242 37.546V49.7303C41.2242 51.3974 38.8827 52.8872 36.151 52.9759C36.0623 52.9759 35.9736 52.9759 35.8849 52.9759C35.2818 52.9759 34.7142 52.9049 34.1643 52.7808L34.1821 54.0577C34.732 54.1642 35.2818 54.2174 35.8849 54.2174C35.9914 54.2174 36.0801 54.2174 36.1865 54.2174C39.6632 54.111 42.4659 52.1423 42.4659 49.7303V37.546C42.5014 35.0807 39.5391 33.0589 35.9204 33.0589ZM35.9204 33.0589C35.885 33.0589 35.8495 33.0589 35.7963 33.0589C35.1045 33.0589 34.4481 33.1476 33.8096 33.2894L33.8273 34.5664C34.4481 34.4068 35.1045 34.3004 35.7963 34.3004C35.8317 34.3004 35.8672 34.3004 35.8849 34.3004C38.7231 34.3004 41.2242 35.8079 41.2242 37.546V49.7303C41.2242 51.3974 38.8827 52.8872 36.151 52.9759C36.0623 52.9759 35.9736 52.9759 35.8849 52.9759C35.2818 52.9759 34.7142 52.9049 34.1643 52.7808L34.1821 54.0577C34.732 54.1642 35.2818 54.2174 35.8849 54.2174C35.9914 54.2174 36.0801 54.2174 36.1865 54.2174C39.6632 54.111 42.4659 52.1423 42.4659 49.7303V37.546C42.5014 35.0807 39.5391 33.0589 35.9204 33.0589ZM35.9204 33.0589C35.885 33.0589 35.8495 33.0589 35.7963 33.0589C35.1045 33.0589 34.4481 33.1476 33.8096 33.2894L33.8273 34.5664C34.4481 34.4068 35.1045 34.3004 35.7963 34.3004C35.8317 34.3004 35.8672 34.3004 35.8849 34.3004C38.7231 34.3004 41.2242 35.8079 41.2242 37.546V49.7303C41.2242 51.3974 38.8827 52.8872 36.151 52.9759C36.0623 52.9759 35.9736 52.9759 35.8849 52.9759C35.2818 52.9759 34.7142 52.9049 34.1643 52.7808L34.1821 54.0577C34.732 54.1642 35.2818 54.2174 35.8849 54.2174C35.9914 54.2174 36.0801 54.2174 36.1865 54.2174C39.6632 54.111 42.4659 52.1423 42.4659 49.7303V37.546C42.5014 35.0807 39.5391 33.0589 35.9204 33.0589Z" fill="#292D3C"/>
<path d="M38.1365 64.0779C38.1365 65.6564 30.4736 66.9333 21.0368 66.9333C11.5822 66.9333 3.93701 65.6564 3.93701 64.0779C3.93701 63.6523 4.50464 63.2444 5.49799 62.8896C6.03014 62.6946 6.7042 62.5172 7.48468 62.3398C7.48468 62.4108 7.46694 62.4817 7.46694 62.5349C7.46694 62.5881 7.4492 62.6059 7.52016 62.6946C8.07004 63.3508 10.4292 64.1311 18.4647 64.2198H19.2807C19.866 64.2198 20.4514 64.2198 21.019 64.2198C21.5867 64.2198 22.172 64.2198 22.7574 64.2198H23.5734C31.6266 64.1311 33.968 63.3508 34.5179 62.6946C34.5889 62.6059 34.5889 62.5704 34.5711 62.5349C34.5534 62.4817 34.5534 62.4108 34.5534 62.3398C35.3339 62.4995 36.0079 62.6946 36.5401 62.8896C37.5689 63.2444 38.1365 63.6523 38.1365 64.0779Z" fill="#292D3C"/>
<path d="M14.7573 45.8282C12.2562 45.8282 10.2163 43.7886 10.2163 41.2879C10.2163 38.7871 12.2562 36.7476 14.7573 36.7476C17.2584 36.7476 19.2983 38.7871 19.2983 41.2879C19.2983 43.7886 17.2584 45.8282 14.7573 45.8282ZM14.7573 38.5034C13.2318 38.5034 11.9901 39.7449 11.9901 41.2701C11.9901 42.7954 13.2318 44.0369 14.7573 44.0369C16.2828 44.0369 17.5245 42.7954 17.5245 41.2701C17.5245 39.7449 16.2828 38.5034 14.7573 38.5034Z" fill="#292D3C"/>
<path d="M27.0512 46.0946C26.6077 46.1655 26.2885 46.5912 26.3772 47.0523C26.4481 47.4957 26.8738 47.8149 27.335 47.7262C27.7785 47.6553 28.0978 47.2296 28.0091 46.7685C27.9204 46.3074 27.4947 46.0059 27.0512 46.0946Z" fill="#FCE8C3"/>
<path d="M22.5094 42.8666C22.5803 43.31 23.006 43.6292 23.4672 43.5406C23.9107 43.4696 24.23 43.044 24.1413 42.5828C24.0703 42.1395 23.6446 41.8202 23.1834 41.9089C22.74 41.9976 22.4384 42.4232 22.5094 42.8666Z" fill="#FCE8C3"/>
<path d="M20.9666 47.7082C21.1085 48.524 21.8713 49.0738 22.705 48.9497C23.5209 48.8078 24.0708 48.0452 23.9467 47.2116C23.8048 46.3958 23.042 45.846 22.2083 45.9701C21.3746 46.112 20.8247 46.8924 20.9666 47.7082Z" fill="#FCE8C3"/>
<path d="M24.6739 52.5858C24.7449 53.0292 25.1706 53.3485 25.6318 53.2598C26.0753 53.1888 26.3945 52.7632 26.3059 52.3021C26.2349 51.8587 25.8092 51.5394 25.348 51.6281C24.9045 51.6991 24.603 52.1247 24.6739 52.5858Z" fill="#FCE8C3"/>
<path d="M29.9774 41.6252C29.3211 41.7316 28.8776 42.3523 29.0018 43.0085C29.1082 43.6647 29.7291 44.1081 30.3854 43.984C31.0417 43.8776 31.4852 43.2568 31.361 42.6006C31.2369 41.9621 30.616 41.5187 29.9774 41.6252Z" fill="#FCE8C3"/>
<path d="M5.97754 59.0767C7.0241 59.3427 8.07066 59.6265 9.09948 59.8748C9.36556 59.928 9.6139 59.9989 9.87997 60.0521L10.6605 60.2295L11.4409 60.3891L12.2214 60.5487L13.0019 60.6906L13.7824 60.8147L14.5629 60.9389C14.829 60.9744 15.095 61.0098 15.3434 61.0453C16.3899 61.1872 17.4542 61.3113 18.5008 61.4532C17.4365 61.5951 16.3722 61.6306 15.3256 61.5774C14.7935 61.5596 14.2613 61.5064 13.7292 61.4532L12.931 61.3468L12.1327 61.2049L11.3523 61.0276L10.5718 60.8325L9.79128 60.6019C9.52521 60.531 9.27686 60.4423 9.01079 60.3536C7.9997 60.0521 6.97089 59.6087 5.97754 59.0767Z" fill="#292D3C"/>
<path d="M6.03125 57.2681C7.00686 57.4632 7.96473 57.6228 8.94034 57.8001L11.8494 58.3322L14.7585 58.882C15.7341 59.0771 16.692 59.2545 17.6676 59.5028C16.692 59.556 15.6986 59.5028 14.723 59.4141C14.2264 59.3786 13.7474 59.3077 13.2508 59.2545C12.7718 59.1835 12.2751 59.0948 11.7962 59.0239C11.3173 58.9175 10.8206 58.8288 10.3417 58.7224C9.86273 58.5982 9.3838 58.4918 8.88712 58.3499C7.92925 58.0484 6.97138 57.7292 6.03125 57.2681Z" fill="#292D3C"/>
<path d="M6.08447 55.6895C6.75853 55.7959 7.41485 55.92 8.07117 56.0442L9.04678 56.2215C9.20642 56.2393 9.36607 56.2747 9.54345 56.3102L10.0401 56.3811C10.6964 56.4876 11.3528 56.5762 12.0091 56.6649C12.6654 56.7536 13.3217 56.8245 13.9958 56.9309C13.3395 57.1083 12.6654 57.1792 11.9913 57.197C11.3173 57.2147 10.6432 57.1615 9.98691 57.0551C9.64988 57.0019 9.3306 56.9309 8.99357 56.8423C8.65654 56.7536 8.33725 56.6649 8.00022 56.5408C7.3439 56.3457 6.70531 56.0619 6.08447 55.6895Z" fill="#292D3C"/>
<path d="M6.13721 53.7207C6.52745 53.7207 6.89996 53.7739 7.2902 53.8449C7.66271 53.9158 8.03521 53.9867 8.40772 54.0754C8.78022 54.1641 9.15273 54.2705 9.52523 54.3947C9.89774 54.5188 10.2702 54.6784 10.625 54.8912C10.2348 54.9622 9.86226 54.9622 9.47202 54.9267C9.09951 54.8912 8.70927 54.838 8.33676 54.7494C7.96426 54.6607 7.59175 54.5365 7.21925 54.3769C6.829 54.1818 6.47424 53.9867 6.13721 53.7207Z" fill="#292D3C"/>
<path d="M35.796 32.3847C35.388 32.2428 34.9978 32.101 34.5898 31.9768C34.3592 31.9059 34.1108 31.8349 33.8802 31.7817L33.7915 31.764L33.1707 31.6221L32.4612 31.4802L31.7516 31.3561L31.0421 31.2674L30.3326 31.2142C29.8536 31.1964 29.3924 31.1787 28.9135 31.1787C27.9734 31.1964 27.0332 31.2851 26.1108 31.4802C27.051 31.5512 27.9911 31.6044 28.9312 31.6753C29.1618 31.693 29.3924 31.7285 29.6408 31.7462L30.3503 31.8172L31.0598 31.8881L31.7694 31.9768L32.4789 32.0832L33.1884 32.1896L33.8448 32.2961L33.898 32.3138C34.1286 32.367 34.3592 32.4025 34.6075 32.4379C35.0155 32.5089 35.4235 32.5976 35.8492 32.6862L35.796 32.3847Z" fill="#292D3C"/>
<path d="M35.814 34.2115C35.4947 34.1228 35.1577 34.0341 34.8384 33.9632C34.5014 33.8745 34.1643 33.8035 33.8273 33.7503C33.7386 33.7326 33.6322 33.7149 33.5435 33.6971C33.1 33.6085 32.6743 33.5553 32.2309 33.4843C31.7874 33.4311 31.3617 33.3779 30.9182 33.3424C30.4748 33.307 30.049 33.2715 29.6056 33.2715C28.7364 33.236 27.8672 33.2537 26.998 33.3602C27.8672 33.5375 28.7364 33.6617 29.6056 33.7681L32.2131 34.1228L33.8273 34.3356L34.8207 34.4598C35.1577 34.4952 35.477 34.5484 35.814 34.5839V34.2115Z" fill="#292D3C"/>
<path d="M35.8485 36.1095C35.813 36.1095 35.7598 36.0917 35.7243 36.0917L34.8374 35.9853C34.6955 35.9676 34.5359 35.9498 34.394 35.9321L33.9505 35.8789C33.915 35.8789 33.8795 35.8789 33.8441 35.8612C33.2942 35.8079 32.7443 35.7547 32.1767 35.7193C31.5913 35.6838 31.0059 35.6483 30.4028 35.5774C30.9705 35.3646 31.5558 35.2582 32.1589 35.2049C32.7088 35.1517 33.2764 35.1517 33.8263 35.2049C33.8618 35.2049 33.8973 35.2049 33.9328 35.2227C34.2343 35.2582 34.5359 35.3114 34.8197 35.3646C35.1212 35.4355 35.4228 35.4887 35.7066 35.5951C35.7421 35.6129 35.7776 35.6129 35.7953 35.6306C35.8485 35.7902 35.8485 35.9498 35.8485 36.1095Z" fill="#292D3C"/>
<path d="M36.5586 62.2157C36.5232 62.0384 36.5054 61.7192 36.4699 61.2758C36.4345 60.7614 36.399 60.1052 36.3813 59.2894C36.3635 59.0943 36.3635 58.8815 36.3635 58.6686C36.3458 58.2785 36.328 57.8705 36.328 57.4272C36.2926 56.6291 36.2748 55.7423 36.2571 54.7846C36.2571 54.6072 36.2393 54.4121 36.2393 54.217C36.2216 53.8091 36.2216 53.4012 36.2039 52.9755C36.2039 52.9223 36.2039 52.8514 36.2039 52.7982C36.0974 48.6835 36.0087 43.5757 35.9023 38.0777C35.9023 37.8649 35.9023 37.652 35.8846 37.4392C35.8846 36.9958 35.8668 36.5702 35.8668 36.1268C35.8668 35.9672 35.8668 35.8075 35.8668 35.6302C35.8668 35.2932 35.8491 34.9385 35.8491 34.6015C35.8491 34.5129 35.8491 34.4064 35.8491 34.3178C35.8491 34.2823 35.8491 34.2468 35.8491 34.2291C35.8491 33.8566 35.8314 33.4665 35.8314 33.0763C35.8314 32.9699 35.8314 32.8634 35.8314 32.7393C35.8314 32.6152 35.8314 32.5087 35.8314 32.3846C35.8314 31.7638 35.8136 31.1431 35.8136 30.5224C35.8136 30.3095 35.8136 30.079 35.7959 29.8661C35.7959 29.6001 35.7781 29.3341 35.7781 29.068C35.7781 28.9262 35.7781 28.7665 35.7781 28.6247C35.7781 28.5892 35.7781 28.5714 35.7781 28.536C35.7781 28.2699 35.7781 28.0216 35.7604 27.7556C35.7604 27.5428 35.7604 27.3122 35.7427 27.0994C35.7427 26.727 35.7249 26.3722 35.7249 25.9998C35.175 26.2304 34.6074 26.4077 34.022 26.5141C33.9334 26.5319 33.8447 26.5496 33.756 26.5496C33.756 26.727 33.756 26.9043 33.7737 27.0817C33.7737 27.2058 33.7737 27.33 33.7737 27.4541C33.7737 27.7024 33.7737 27.9507 33.7915 28.199C33.7915 28.3054 33.7915 28.4118 33.7915 28.5182C33.7915 28.6069 33.7915 28.6779 33.7915 28.7665C33.7915 28.8552 33.7915 28.9616 33.7915 29.068C33.7915 29.3873 33.8092 29.7065 33.8092 30.0258C33.8092 30.1854 33.8092 30.345 33.8092 30.5224C33.8092 30.9303 33.8269 31.3559 33.8269 31.7638C33.8269 31.9589 33.8269 32.154 33.8269 32.3491C33.8269 32.6684 33.8447 32.9876 33.8447 33.3068C33.8447 33.4487 33.8447 33.5906 33.8447 33.7502C33.8447 33.9453 33.8447 34.1404 33.8624 34.3532C33.8624 34.4419 33.8624 34.5129 33.8624 34.6015C33.8624 34.8144 33.8624 35.0272 33.8801 35.24C33.8801 35.4528 33.8801 35.6834 33.8979 35.8962C33.8979 36.3751 33.9156 36.8362 33.9156 37.3151C33.9156 37.386 33.9156 37.4747 33.9156 37.5456C34.0043 42.8486 34.1107 48.3288 34.2172 52.8159C34.2349 53.2593 34.2349 53.6672 34.2526 54.0929C34.2526 54.3412 34.2704 54.5717 34.2704 54.8023C34.3059 55.7068 34.3236 56.5759 34.3413 57.3562C34.3591 57.7996 34.3768 58.2075 34.3768 58.6154C34.3768 58.8637 34.3946 59.0943 34.3946 59.3071C34.43 60.0875 34.4655 60.7614 34.4832 61.2935C34.501 61.7546 34.5365 62.1093 34.5719 62.3576C34.5897 62.4286 34.5897 62.4995 34.5897 62.5527C34.5897 62.5882 34.6074 62.6237 34.5365 62.7123C33.9866 63.3686 31.6274 64.1489 23.5919 64.2376H22.7759C22.1906 64.2376 21.6052 64.2376 21.0376 64.2376C20.47 64.2376 19.8846 64.2376 19.2992 64.2376H18.4833C10.43 64.1489 8.08858 63.3686 7.5387 62.7123C7.46774 62.6237 7.46774 62.5882 7.48548 62.5527C7.48548 62.4995 7.50322 62.4286 7.50322 62.3576C7.84025 59.2717 8.17728 38.7871 8.35466 26.4432C8.35466 26.1949 8.35466 25.9643 8.3724 25.7338C8.3724 25.3968 8.39013 25.0598 8.39013 24.7406C7.66286 24.5277 7.00655 24.173 6.42118 23.7119C6.42118 24.1908 6.40344 24.6519 6.40344 25.1308C6.40344 25.3081 6.40344 25.4855 6.40344 25.6806C6.17284 42.7421 5.83581 60.3535 5.552 62.2512C5.51652 62.4818 5.51652 62.6946 5.552 62.9074C5.60521 63.2976 5.7826 63.6701 6.06641 63.9893C7.34358 65.4968 10.9445 66.1353 18.4655 66.2062C18.5187 66.2062 18.5542 66.2062 18.6074 66.2062H19.317C19.7959 66.2062 20.2748 66.2062 20.736 66.2062H21.3746C21.8358 66.2062 22.3147 66.2062 22.7937 66.2062H23.5209C23.5742 66.2062 23.6096 66.2062 23.6629 66.2062C31.2017 66.1353 34.8025 65.4791 36.0797 63.9893C36.3635 63.6523 36.5232 63.2976 36.5941 62.8897C36.5941 62.6591 36.5941 62.4463 36.5586 62.2157Z" fill="#292D3C"/>
<path d="M46.8282 38.3794V48.9321C46.8282 53.5256 42.1452 57.2678 36.2916 57.4274C36.2561 56.6293 36.2384 55.7425 36.2206 54.7848C36.2206 54.6074 36.2029 54.4123 36.2029 54.2172C39.6796 54.1108 42.4823 52.1422 42.4823 49.7302V37.5458C42.4823 35.0806 39.52 33.0588 35.9013 33.0588C35.8659 33.0588 35.8304 33.0588 35.7772 33.0588C35.7772 32.9523 35.7772 32.8459 35.7772 32.7218C35.7772 32.5976 35.7772 32.4912 35.7772 32.3671C35.7772 31.7463 35.7594 31.1256 35.7594 30.5048C35.7594 30.292 35.7594 30.0615 35.7417 29.8486C35.7949 29.8486 35.8481 29.8486 35.9013 29.8486C41.9324 29.8664 46.8282 33.6795 46.8282 38.3794Z" fill="#EEB448"/>
<path d="M43.8132 14.0818C43.2633 11.0845 41.5782 8.47742 39.077 6.75707C36.8243 5.19635 34.1281 4.50466 31.4318 4.78843C28.2212 1.0817 23.2899 -0.656377 18.4296 0.230399C14.4917 0.93982 11.1037 3.29864 9.04604 6.70387C8.81544 6.7216 8.58484 6.75707 8.35425 6.81028C5.8354 7.2714 3.63585 8.69024 2.1813 10.8008C0.726759 12.9113 0.176871 15.4652 0.638068 17.9837C1.15248 20.8036 2.89084 23.2334 5.40968 24.6345C5.72897 24.8118 6.04826 24.9715 6.38529 25.1133C6.88196 25.3262 7.37864 25.4858 7.89305 25.6099C8.05269 25.6454 8.21234 25.6809 8.35425 25.6986C8.56711 25.7341 8.77997 25.7696 8.99283 25.7873V30.1148C8.99283 33.2894 11.5826 35.8788 14.7578 35.8788C17.933 35.8788 20.5227 33.2894 20.5227 30.1148V27.7914C21.4806 27.8269 22.4562 27.7382 23.4141 27.5608C24.7977 27.3125 26.1103 26.8514 27.3343 26.2129C29.3032 27.2416 31.5383 27.6673 33.7378 27.4544C33.8265 27.4544 33.8975 27.4367 33.9861 27.4367C34.2167 27.419 34.4473 27.3835 34.6602 27.3303C35.015 27.2593 35.3697 27.1884 35.7245 27.082C35.9551 27.011 36.168 26.9401 36.3986 26.8692C38.9351 25.9824 41.0815 24.2088 42.4473 21.8855C43.8132 19.5444 44.3099 16.7599 43.8132 14.0818Z" fill="#292D3C"/>
<path d="M34.8558 25.2728C34.6784 25.326 34.4833 25.3614 34.2882 25.3969C34.1108 25.4324 33.9334 25.4501 33.7383 25.4856C31.7161 25.7339 29.6407 25.3082 27.8846 24.2973C27.5476 24.1022 27.1219 24.1022 26.7849 24.2973C25.6319 24.9535 24.3725 25.3969 23.0598 25.6452C21.96 25.8403 20.8425 25.8935 19.7605 25.7871C19.4412 25.7516 19.1396 25.858 18.909 26.0709C18.6784 26.2837 18.5543 26.5852 18.5543 26.8867V30.1323C18.5543 32.2251 16.8514 33.91 14.776 33.91C12.6829 33.91 10.9977 32.2074 10.9977 30.1323V24.989C10.9977 24.386 10.5188 23.8894 9.91571 23.8894C9.4013 23.8717 8.86915 23.8007 8.35474 23.6943C7.66294 23.5347 7.00662 23.2687 6.38578 22.9317C4.38135 21.8143 3.0155 19.8989 2.58978 17.6465C2.21727 15.6424 2.66073 13.6205 3.81372 11.9534C4.96671 10.2685 6.70507 9.15117 8.7095 8.77873C9.01105 8.72552 9.3126 8.69005 9.63189 8.67232C9.80928 8.65458 9.98666 8.60137 10.1463 8.5127C10.572 9.09797 10.9623 9.70098 11.3525 10.3217C13.1086 13.1062 15.0066 16.3341 18.2173 17.008C21.7649 17.7529 25.6141 15.0394 28.8957 16.5646C32.1241 18.0367 32.6385 22.6656 34.8558 25.2728Z" fill="#F1C36D"/>
<path d="M40.7093 20.8924C39.5741 22.8256 37.8002 24.2799 35.7071 25.007C35.4233 25.1134 35.1395 25.2021 34.8379 25.2731C32.6206 22.6659 32.1062 18.037 28.8778 16.5295C25.5962 15.0042 21.747 17.7177 18.1994 16.9728C14.971 16.2989 13.0907 13.071 11.3346 10.2866C10.9444 9.68354 10.5541 9.0628 10.1284 8.47753C10.2881 8.38885 10.43 8.24697 10.5187 8.06961C12.2393 5.00137 15.3257 2.80216 18.767 2.18142C19.512 2.03953 20.257 1.98633 21.002 1.98633C24.5674 1.98633 27.8845 3.56479 30.1905 6.42021C30.4388 6.72171 30.8291 6.88133 31.2193 6.82813C33.5785 6.47341 35.9732 7.02322 37.9421 8.38885C40.0175 9.80769 41.4011 11.9714 41.8446 14.4367C42.2703 16.6536 41.8623 18.9415 40.7093 20.8924Z" fill="#FCE8C3"/>
<path d="M18.1285 7.11176C18.3945 7.02309 18.7138 6.93441 18.9976 6.91667C18.7138 6.93441 18.9799 6.91667 19.0331 6.91667C19.1041 6.91667 19.175 6.89894 19.2282 6.89894C19.3701 6.89894 19.5298 6.8812 19.6717 6.8812C19.9555 6.8812 20.2571 6.89894 20.5409 6.93441C20.5941 6.93441 20.6473 6.95214 20.7005 6.95214C20.807 6.96988 20.4344 6.91667 20.6828 6.95214C20.807 6.96988 20.9311 6.98761 21.0376 7.02309C21.2859 7.07629 21.5165 7.1295 21.7471 7.21818C21.8003 7.23591 21.8535 7.25365 21.9067 7.27138C22.0664 7.32459 21.9599 7.28912 21.8713 7.25365C21.9954 7.30685 22.1018 7.36006 22.226 7.431C22.3147 7.48421 22.4211 7.53742 22.5098 7.59062C22.563 7.62609 22.6163 7.66157 22.6695 7.69704C22.8291 7.80345 22.5453 7.59062 22.634 7.66157C22.7227 7.75024 22.8114 7.82118 22.9001 7.90986C22.9533 7.96307 22.9888 7.99854 23.0242 8.05175C23.1661 8.21137 22.8823 7.85666 23.0242 8.05175C23.1839 8.28231 23.379 8.45966 23.6628 8.54834C23.9112 8.61928 24.2482 8.58381 24.4788 8.44193C24.9222 8.15816 25.2061 7.46647 24.869 6.98762C24.0885 5.92348 22.971 5.285 21.6939 5.00124C20.3635 4.69973 18.8735 4.66426 17.5608 5.07218C17.0287 5.24953 16.6384 5.81707 16.8158 6.38461C16.9755 6.89894 17.5431 7.28912 18.1285 7.11176Z" fill="white"/>
<path d="M37.7467 13.8512C37.7822 14.1527 37.7822 14.472 37.7644 14.7735C37.7644 14.8622 37.7467 14.9331 37.7467 15.0218C37.7289 15.2346 37.7644 14.8976 37.7467 15.0218C37.7112 15.1814 37.6935 15.3233 37.658 15.4829C37.587 15.7667 37.5161 16.0504 37.4274 16.3165C37.3919 16.4406 37.3564 16.547 37.3032 16.6712C37.2855 16.7067 37.2323 16.7953 37.25 16.8308C37.3032 16.6889 37.321 16.6535 37.2855 16.7244C37.2677 16.7599 37.25 16.7776 37.25 16.8131C37.1436 17.0436 37.0371 17.2565 36.913 17.4693C36.8598 17.558 36.7888 17.6644 36.7356 17.7531C36.7179 17.7885 36.7001 17.8063 36.6824 17.8417C36.6292 17.9127 36.6646 17.8772 36.7533 17.7531C36.7179 17.7708 36.6646 17.8772 36.6292 17.9127C36.5582 18.0014 36.4873 18.0723 36.3986 18.1432C36.3454 18.1964 36.3099 18.2319 36.2567 18.2674C36.2212 18.3029 36.0615 18.3915 36.2212 18.3029C36.3631 18.2142 36.2034 18.3206 36.168 18.3383C36.1148 18.3738 36.0615 18.4093 36.0083 18.4447C35.9019 18.5157 35.7777 18.5689 35.6536 18.6221C35.1391 18.8527 34.9795 19.633 35.2633 20.0764C35.6003 20.6085 36.168 20.6972 36.7179 20.4666C37.7999 19.97 38.6159 18.9591 39.0948 17.8949C39.6624 16.6535 40.0349 15.2346 39.893 13.8512C39.8575 13.5675 39.7866 13.3192 39.5737 13.1063C39.3963 12.929 39.0948 12.7871 38.8287 12.7871C38.2788 12.8048 37.6935 13.266 37.7467 13.8512Z" fill="white"/>
<path d="M30.261 8.4774C29.2322 8.65475 28.5227 9.6302 28.7001 10.6589C28.8774 11.6875 29.8531 12.3969 30.8819 12.2196C31.9107 12.0422 32.6202 11.0668 32.4428 10.0381C32.2655 9.00946 31.2899 8.30004 30.261 8.4774Z" fill="white"/>
</svg>
